<?xml version="1.0" encoding="UTF-8"?>
<svg version="1.1" xmlns="http://www.w3.org/2000/svg" width="336" height="132">
<path d="M0 0 C1.45833333 0.9375 2.91666667 1.875 4.375 2.8125 C7.61694511 4.78823333 7.61694511 4.78823333 11.25 4.47265625 C13.26991878 3.42927909 15.10903661 2.25779013 17 1 C21.87432021 -0.6247734 26.87037178 -0.84194604 31.6875 1.0625 C37.13856283 5.62960669 40.69335787 9.8134683 42 17 C42.16229917 19.75908591 42.2922599 22.07486075 41.45703125 24.71875 C40.57035368 29.14455939 41.44658539 33.71219267 41.84375 38.17578125 C41.99814838 41.9546815 41.71441991 45.29159667 41 49 C38.82398377 51.17601623 34.20265688 50.55848732 31.1875 50.75 C29.95676758 50.85248047 29.95676758 50.85248047 28.70117188 50.95703125 C25.29795887 51.17231966 22.66854034 51.23949235 19.4375 50.08203125 C17.04994155 46.62396425 17.63105714 43.0187913 17.8125 38.9375 C17.85398752 37.22144022 17.89178042 35.50528694 17.92578125 33.7890625 C17.94463379 32.96438477 17.96348633 32.13970703 17.98291016 31.29003906 C18.01388852 27.13893897 17.5389586 23.10955935 17 19 C15.68 18.67 14.36 18.34 13 18 C13.01571045 18.82725586 13.0314209 19.65451172 13.04760742 20.50683594 C13.10996304 24.25448777 13.14899346 28.00203045 13.1875 31.75 C13.21263672 33.05195312 13.23777344 34.35390625 13.26367188 35.6953125 C13.27333984 36.94570312 13.28300781 38.19609375 13.29296875 39.484375 C13.3086792 40.63647461 13.32438965 41.78857422 13.34057617 42.97558594 C12.96448626 46.31537218 12.36613664 47.65358981 10 50 C3.86896483 52.04367839 -2.72500803 51.06808374 -9 50 C-11.88170425 41.93122811 -11.99431563 35.38695411 -11.140625 27.01367188 C-10.69110794 22.72891667 -10.69110794 22.72891667 -12.4765625 18.98046875 C-12.97929687 18.65691406 -13.48203125 18.33335938 -14 18 C-16.33023814 21.49535721 -16.18906134 22.70684998 -16.0625 26.8125 C-15.98975414 31.79279361 -16.07253973 36.71484815 -16.375 41.6875 C-16.44460937 42.84636719 -16.51421875 44.00523438 -16.5859375 45.19921875 C-17 48 -17 48 -19 50 C-34.38028169 52.74647887 -34.38028169 52.74647887 -40 49 C-41.20933688 42.86347915 -41.12141181 36.73558895 -41.0625 30.5 C-41.05798828 29.5821875 -41.05347656 28.664375 -41.04882812 27.71875 C-41.03716326 25.47909609 -41.02079614 23.23958455 -41 21 C-43.22972273 21.11465421 -45.45878753 21.24214766 -47.6875 21.375 C-48.92886719 21.44460937 -50.17023438 21.51421875 -51.44921875 21.5859375 C-54.69317772 21.96422094 -57.06567185 22.61979976 -60 24 C-59.87431641 25.10794922 -59.87431641 25.10794922 -59.74609375 26.23828125 C-58.94562995 34.21252191 -58.43129393 42.29388178 -61 50 C-64.64581687 50.02887512 -68.29160463 50.04675585 -71.9375 50.0625 C-73.49887695 50.07506836 -73.49887695 50.07506836 -75.09179688 50.08789062 C-76.08115234 50.09111328 -77.07050781 50.09433594 -78.08984375 50.09765625 C-79.46450806 50.10551147 -79.46450806 50.10551147 -80.86694336 50.11352539 C-83 50 -83 50 -84 49 C-85.59044488 40.07701517 -84.99154846 30.85566861 -84.703125 21.84423828 C-84.62406827 19.34555137 -84.55747836 16.84673709 -84.4921875 14.34765625 C-84.44604004 12.76039535 -84.39919165 11.17315463 -84.3515625 9.5859375 C-84.32178818 8.46425674 -84.32178818 8.46425674 -84.29141235 7.31991577 C-84.11539102 2.11539102 -84.11539102 2.11539102 -83 1 C-80.05298879 0.65416217 -77.14467157 0.39136388 -74.1875 0.1875 C-73.36701172 0.11080078 -72.54652344 0.03410156 -71.70117188 -0.04492188 C-65.59070596 -0.45625089 -65.59070596 -0.45625089 -62.42578125 1.98828125 C-61.72001953 2.98408203 -61.72001953 2.98408203 -61 4 C-56.92035719 2.69844994 -56.92035719 2.69844994 -53 1 C-50.55422877 0.88927689 -48.13778745 0.83590874 -45.69140625 0.83203125 C-44.6076194 0.82703865 -44.6076194 0.82703865 -43.50193787 0.82194519 C-41.9728967 0.81688012 -40.44384447 0.81453674 -38.91479492 0.81469727 C-36.5751728 0.81251184 -34.23602297 0.7943552 -31.89648438 0.77539062 C-30.41145995 0.77245641 -28.92643328 0.7704718 -27.44140625 0.76953125 C-26.7413295 0.76234573 -26.04125275 0.75516022 -25.31996155 0.74775696 C-21.64876732 0.76502738 -20.14247344 0.9050177 -17 3 C-14.41471367 2.31495562 -14.41471367 2.31495562 -11.6875 1.0625 C-4.55822325 -1.68456077 -4.55822325 -1.68456077 0 0 Z M-75 10 C-75 10.66 -75 11.32 -75 12 C-74.34 11.67 -73.68 11.34 -73 11 C-73.66 10.67 -74.32 10.34 -75 10 Z M-58 12 C-57.34 12.66 -56.68 13.32 -56 14 C-56 13.34 -56 12.68 -56 12 C-56.66 12 -57.32 12 -58 12 Z M-52 16 C-51 18 -51 18 -51 18 Z " fill="#020202" transform="translate(206,50)"/>
<path d="M0 0 C0 4.95 0 9.9 0 15 C-2.31 15.66 -4.62 16.32 -7 17 C-9.00361307 17.65572791 -11.00491933 18.31875294 -13 19 C-11.7625 19.144375 -10.525 19.28875 -9.25 19.4375 C-6.43495501 19.78688502 -3.7298503 20.20379366 -1 21 C-0.505 24.96 -0.505 24.96 0 29 C0.721875 28.2575 1.44375 27.515 2.1875 26.75 C3.115625 25.8425 4.04375 24.935 5 24 C5.7425 23.2575 6.485 22.515 7.25 21.75 C11.13986123 19.27463376 14.45731543 19.153424 19 19 C20.05316406 18.96003906 21.10632813 18.92007813 22.19140625 18.87890625 C31.75358529 18.69054351 40.56802832 19.32865656 48 26 C54.15224791 33.58231038 53.89895027 42.71715564 53 52 C51.739545 57.33904519 50.209665 61.35863977 46 65 C37.15538489 70.42423661 26.99667763 72.14628532 16.75 70.3125 C15.15699051 69.91166157 13.57266517 69.47442066 12 69 C10.80890625 68.66548828 10.80890625 68.66548828 9.59375 68.32421875 C4.02862563 66.36715001 0.84629991 63.45197835 -1.98046875 58.28125 C-4.11702664 51.40497174 -3.41836345 44.11217872 -3 37 C-6.63 37.33 -10.26 37.66 -14 38 C-13.814375 39.485 -13.62875 40.97 -13.4375 42.5 C-13.04263503 46.41574426 -13.11255716 49.87187138 -13.74609375 53.77734375 C-14.19347786 57.69367546 -14.0163077 61.62313413 -13.9375 65.55859375 C-14 68 -14 68 -15 69 C-21.71399485 70.07903489 -29.42486362 71.25841641 -36 69 C-37.46098845 66.0780231 -37.11134901 63.50106525 -37.09765625 60.2421875 C-37.0962413 59.57913605 -37.09482635 58.91608459 -37.09336853 58.23294067 C-37.08776754 56.11358137 -37.075215 53.99432741 -37.0625 51.875 C-37.05748512 50.43880361 -37.05292219 49.00260556 -37.04882812 47.56640625 C-37.03779782 44.04423655 -37.02053259 40.52212855 -37 37 C-39.64 37 -42.28 37 -45 37 C-46.96347097 31.45608197 -47.07997558 27.79259627 -46 22 C-45.67 21.34 -45.34 20.68 -45 20 C-42.67843403 19.59270772 -40.3431213 19.25561323 -38 19 C-37.90203125 18.40832031 -37.8040625 17.81664063 -37.703125 17.20703125 C-36.30865214 9.83796347 -33.8772531 6.10816919 -27.75 1.6875 C-19.32312952 -3.20309447 -9.21667835 -1.53611306 0 0 Z M-6 4 C-6.33 4.66 -6.66 5.32 -7 6 C-6.01 6 -5.02 6 -4 6 C-4 5.34 -4 4.68 -4 4 C-4.66 4 -5.32 4 -6 4 Z M24 24 C24.33 24.66 24.66 25.32 25 26 C25.33 25.34 25.66 24.68 26 24 C25.34 24 24.68 24 24 24 Z M23 35 C21.414131 38.171738 21.62133555 41.63513822 21.4375 45.125 C21.39431641 45.87910156 21.35113281 46.63320312 21.30664062 47.41015625 C21.2005168 49.27321888 21.09974999 51.13658524 21 53 C22.9914056 53.38133299 24.99279077 53.71325582 27 54 C29.00046942 51.99953058 28.58628192 48.35995122 28.8125 45.625 C28.92754883 44.59632812 28.92754883 44.59632812 29.04492188 43.546875 C29.27418749 41.28527821 29.27418749 41.28527821 29 38 C27.27417032 35.93168456 27.27417032 35.93168456 25 35 C24.34 35 23.68 35 23 35 Z M17 36 C18 38 18 38 18 38 Z M5 42 C4.67 42.66 4.34 43.32 4 44 C4.66 44 5.32 44 6 44 C5.67 43.34 5.34 42.68 5 42 Z " fill="#020201" transform="translate(68,31)"/>
<path d="M0 0 C1.06939819 0.26538574 1.06939819 0.26538574 2.16040039 0.53613281 C2.94479492 0.72175781 3.72918945 0.90738281 4.53735352 1.09863281 C5.35268555 1.31003906 6.16801758 1.52144531 7.00805664 1.73925781 C7.81952148 1.93519531 8.63098633 2.13113281 9.46704102 2.33300781 C11.672799 2.86861434 13.87196659 3.42507557 16.07055664 3.98925781 C16.77639893 4.13524414 17.48224121 4.28123047 18.20947266 4.43164062 C20.07055664 4.98925781 20.07055664 4.98925781 22.07055664 6.98925781 C24.28778842 7.37748906 26.52097605 7.6771367 28.75805664 7.92675781 C34.10801778 8.61813741 38.30716683 9.49930405 43.07055664 11.98925781 C43.73055664 12.31925781 44.39055664 12.64925781 45.07055664 12.98925781 C44.92947917 14.4480589 44.78253249 15.90629333 44.63305664 17.36425781 C44.5518457 18.17636719 44.47063477 18.98847656 44.38696289 19.82519531 C44.07055664 21.98925781 44.07055664 21.98925781 43.07055664 23.98925781 C42.41055664 23.98925781 41.75055664 23.98925781 41.07055664 23.98925781 C41.31805664 24.87613281 41.56555664 25.76300781 41.82055664 26.67675781 C42.64965333 32.51648231 40.81439072 38.86695659 38.07055664 43.98925781 C34.31374499 46.24104706 31.61613992 46.07879063 27.50415039 45.12597656 C25.83394821 44.65990433 24.16854989 44.17631843 22.50805664 43.67675781 C20.84038297 43.20046302 19.17242207 42.72517255 17.50415039 42.25097656 C16.72273682 42.02474609 15.94132324 41.79851562 15.13623047 41.56542969 C12.79753635 40.91310512 10.45711236 40.43335799 8.07055664 39.98925781 C5.37724115 39.38223645 2.69222508 38.75885188 0.00805664 38.11425781 C-0.69899414 37.953125 -1.40604492 37.79199219 -2.13452148 37.62597656 C-6.02212414 36.68419113 -8.94672992 35.70081549 -11.92944336 32.98925781 C-5.18895111 -0.02888952 -5.18895111 -0.02888952 0 0 Z M6.07055664 12.98925781 C7.07055664 16.98925781 7.07055664 16.98925781 7.07055664 16.98925781 Z M5.07055664 16.98925781 C6.07055664 20.98925781 6.07055664 20.98925781 6.07055664 20.98925781 Z M4.07055664 20.98925781 C5.07055664 24.98925781 5.07055664 24.98925781 5.07055664 24.98925781 Z M19.07055664 21.98925781 C20.07055664 24.98925781 20.07055664 24.98925781 20.07055664 24.98925781 Z M3.07055664 24.98925781 C4.07055664 26.98925781 4.07055664 26.98925781 4.07055664 26.98925781 Z M17.07055664 28.98925781 C17.73055664 29.64925781 18.39055664 30.30925781 19.07055664 30.98925781 C19.40055664 30.32925781 19.73055664 29.66925781 20.07055664 28.98925781 C19.08055664 28.98925781 18.09055664 28.98925781 17.07055664 28.98925781 Z M26.07055664 30.98925781 C26.07055664 31.64925781 26.07055664 32.30925781 26.07055664 32.98925781 C26.73055664 32.98925781 27.39055664 32.98925781 28.07055664 32.98925781 C28.07055664 32.32925781 28.07055664 31.66925781 28.07055664 30.98925781 C27.41055664 30.98925781 26.75055664 30.98925781 26.07055664 30.98925781 Z " fill="#F3F3F2" transform="translate(262.929443359375,24.0107421875)"/>
<path d="M0 0 C2.86328125 0.13671875 2.86328125 0.13671875 6.3125 0.6875 C8.00826172 0.94080078 8.00826172 0.94080078 9.73828125 1.19921875 C13.05167131 2.01268577 15.29388616 2.93150482 18 5 C18.38692581 8.15989415 18.43060128 10.13879744 17 13 C14.6568787 12.74438677 12.32156597 12.40729228 10 12 C9.67 11.34 9.34 10.68 9 10 C6.47266765 9.34444881 6.47266765 9.34444881 4 9 C4 10.32 4 11.64 4 13 C7.45058686 15.30039124 9.94095502 15.4738275 14 16 C15.53209716 17.53209716 15.20614547 18.93190053 15.25 21.0625 C15.17852057 26.02634914 14.29001877 29.57789479 12 34 C7.57139573 35.73893819 3.63183898 34.3998703 -0.75 33.125 C-1.77673828 32.84462891 -1.77673828 32.84462891 -2.82421875 32.55859375 C-7.84256954 31.15743046 -7.84256954 31.15743046 -9 30 C-9.04092937 27.66702567 -9.04241723 25.33294775 -9 23 C-3.375 21 -3.375 21 0 21 C0 22.32 0 23.64 0 25 C1.65 25 3.3 25 5 25 C5 23.68 5 22.36 5 21 C2.69 20.34 0.38 19.68 -2 19 C-3.18957518 15.36866525 -2.97368815 12.15951795 -2.6875 8.375 C-2.56955078 6.65410156 -2.56955078 6.65410156 -2.44921875 4.8984375 C-2 2 -2 2 0 0 Z " fill="#E8E7E6" transform="translate(287,33)"/>
<path d="M0 0 C1.06939819 0.26538574 1.06939819 0.26538574 2.16040039 0.53613281 C2.94479492 0.72175781 3.72918945 0.90738281 4.53735352 1.09863281 C5.35268555 1.31003906 6.16801758 1.52144531 7.00805664 1.73925781 C7.81952148 1.93519531 8.63098633 2.13113281 9.46704102 2.33300781 C11.672799 2.86861434 13.87196659 3.42507557 16.07055664 3.98925781 C16.77639893 4.13524414 17.48224121 4.28123047 18.20947266 4.43164062 C20.07055664 4.98925781 20.07055664 4.98925781 22.07055664 6.98925781 C24.28778842 7.37748906 26.52097605 7.6771367 28.75805664 7.92675781 C34.10801778 8.61813741 38.30716683 9.49930405 43.07055664 11.98925781 C43.73055664 12.31925781 44.39055664 12.64925781 45.07055664 12.98925781 C44.92947917 14.4480589 44.78253249 15.90629333 44.63305664 17.36425781 C44.5518457 18.17636719 44.47063477 18.98847656 44.38696289 19.82519531 C44.07055664 21.98925781 44.07055664 21.98925781 43.07055664 23.98925781 C42.41055664 23.98925781 41.75055664 23.98925781 41.07055664 23.98925781 C41.31805664 24.87613281 41.56555664 25.76300781 41.82055664 26.67675781 C42.64965333 32.51648231 40.81439072 38.86695659 38.07055664 43.98925781 C34.31374499 46.24104706 31.61613992 46.07879063 27.50415039 45.12597656 C25.83394821 44.65990433 24.16854989 44.17631843 22.50805664 43.67675781 C20.84038297 43.20046302 19.17242207 42.72517255 17.50415039 42.25097656 C16.72273682 42.02474609 15.94132324 41.79851562 15.13623047 41.56542969 C12.79753635 40.91310512 10.45711236 40.43335799 8.07055664 39.98925781 C5.37724115 39.38223645 2.69222508 38.75885188 0.00805664 38.11425781 C-0.69899414 37.953125 -1.40604492 37.79199219 -2.13452148 37.62597656 C-6.02212414 36.68419113 -8.94672992 35.70081549 -11.92944336 32.98925781 C-5.18895111 -0.02888952 -5.18895111 -0.02888952 0 0 Z M-1.92944336 1.98925781 C-4.0433913 7.80261465 -5.69850626 13.67611957 -7.17944336 19.67675781 C-7.36667969 20.40113037 -7.55391602 21.12550293 -7.74682617 21.87182617 C-8.79561584 26.24395557 -9.0257424 29.5267585 -7.92944336 33.98925781 C-5.72416064 34.66594731 -3.51505727 35.3301928 -1.30444336 35.98925781 C-0.07467773 36.36050781 1.15508789 36.73175781 2.42211914 37.11425781 C5.8090249 37.926535 8.60910093 38.15966794 12.07055664 37.98925781 C12.86517204 35.49016206 13.65630067 32.99004639 14.44555664 30.48925781 C14.77813477 29.44511719 14.77813477 29.44511719 15.11743164 28.37988281 C17.37325387 21.21432985 19.38653184 14.5726626 19.07055664 6.98925781 C16.134332 6.15119166 13.19673597 5.31863337 10.25805664 4.48925781 C9.42467773 4.25078125 8.59129883 4.01230469 7.73266602 3.76660156 C6.93022461 3.54101562 6.1277832 3.31542969 5.30102539 3.08300781 C4.56263428 2.87353516 3.82424316 2.6640625 3.06347656 2.44824219 C0.92416027 1.87704168 0.92416027 1.87704168 -1.92944336 1.98925781 Z M24.07055664 8.98925781 C21.34516036 11.71465409 21.64363442 13.56238526 21.38305664 17.36425781 C21.29668945 18.50636719 21.21032227 19.64847656 21.12133789 20.82519531 C21.07822277 23.51159876 21.24291073 25.46275976 22.07055664 27.98925781 C24.38055664 28.64925781 26.69055664 29.30925781 29.07055664 29.98925781 C28.74055664 31.30925781 28.41055664 32.62925781 28.07055664 33.98925781 C26.75055664 33.98925781 25.43055664 33.98925781 24.07055664 33.98925781 C24.07055664 32.66925781 24.07055664 31.34925781 24.07055664 29.98925781 C21.76055664 29.65925781 19.45055664 29.32925781 17.07055664 28.98925781 C14.61724662 32.66922284 14.67547771 34.64338953 15.07055664 38.98925781 C18.28879267 41.1347485 20.69998385 41.79821957 24.44555664 42.67675781 C25.56704102 42.94875 26.68852539 43.22074219 27.84399414 43.50097656 C31.03960921 43.98457448 33.04154613 44.09218349 36.07055664 42.98925781 C38.95731151 37.41483462 39.78135859 32.23611339 39.07055664 25.98925781 C37.90322768 24.6184828 37.90322768 24.6184828 34.69555664 24.55175781 C31.07055664 23.98925781 31.07055664 23.98925781 28.07055664 21.98925781 C28.07055664 20.66925781 28.07055664 19.34925781 28.07055664 17.98925781 C32.71279267 18.61658701 32.71279267 18.61658701 34.57055664 20.55175781 C36.0493069 22.27582758 36.0493069 22.27582758 38.75805664 22.17675781 C39.52118164 22.11488281 40.28430664 22.05300781 41.07055664 21.98925781 C42.50115792 19.12805526 42.45748245 17.14915196 42.07055664 13.98925781 C38.38418855 11.17147738 34.92149185 10.35467687 30.38305664 9.67675781 C29.24481445 9.495 28.10657227 9.31324219 26.93383789 9.12597656 C25.98895508 9.08085938 25.04407227 9.03574219 24.07055664 8.98925781 Z M19.07055664 21.98925781 C20.07055664 24.98925781 20.07055664 24.98925781 20.07055664 24.98925781 Z M26.07055664 30.98925781 C26.07055664 31.64925781 26.07055664 32.30925781 26.07055664 32.98925781 C26.73055664 32.98925781 27.39055664 32.98925781 28.07055664 32.98925781 C28.07055664 32.32925781 28.07055664 31.66925781 28.07055664 30.98925781 C27.41055664 30.98925781 26.75055664 30.98925781 26.07055664 30.98925781 Z " fill="#1E1D1A" transform="translate(262.929443359375,24.0107421875)"/>
<path d="M0 0 C2.86328125 0.13671875 2.86328125 0.13671875 6.3125 0.6875 C8.00826172 0.94080078 8.00826172 0.94080078 9.73828125 1.19921875 C13.05167131 2.01268577 15.29388616 2.93150482 18 5 C18.38692581 8.15989415 18.43060128 10.13879744 17 13 C14.6568787 12.74438677 12.32156597 12.40729228 10 12 C9.67 11.34 9.34 10.68 9 10 C6.47266765 9.34444881 6.47266765 9.34444881 4 9 C4.53069061 12.82097239 5.49701566 15.06171403 8 18 C1.15175097 19.40077821 1.15175097 19.40077821 -2 18 C-3.1636518 14.50904461 -2.9614595 12.09710825 -2.6875 8.4375 C-2.60886719 7.28121094 -2.53023438 6.12492187 -2.44921875 4.93359375 C-2 2 -2 2 0 0 Z " fill="#F7F6F6" transform="translate(287,33)"/>
<path d="M0 0 C0.98613281 0.30164062 1.97226562 0.60328125 2.98828125 0.9140625 C3.98214844 1.21054687 4.97601563 1.50703125 6 1.8125 C6.75925781 2.05226562 7.51851563 2.29203125 8.30078125 2.5390625 C8.79578125 5.0140625 8.79578125 5.0140625 9.30078125 7.5390625 C6.80985314 8.78452655 5.88997392 8.3158203 3.30078125 7.5390625 C3.30078125 6.2190625 3.30078125 4.8990625 3.30078125 3.5390625 C2.49640625 3.7040625 1.69203125 3.8690625 0.86328125 4.0390625 C-1.69921875 4.5390625 -1.69921875 4.5390625 -2.69921875 4.5390625 C-3.68921875 5.0340625 -3.68921875 5.0340625 -4.69921875 5.5390625 C-4.69921875 7.8490625 -4.69921875 10.1590625 -4.69921875 12.5390625 C-2.34778699 13.21695274 0.00616749 13.88146997 2.36328125 14.5390625 C3.34844727 14.82523438 3.34844727 14.82523438 4.35351562 15.1171875 C8.76818305 16.33502679 12.68019802 16.73133644 17.30078125 16.5390625 C15.86328125 18.14453125 15.86328125 18.14453125 13.30078125 19.5390625 C10.20474963 19.38813096 7.29552465 18.61938409 4.30078125 17.8515625 C3.49382812 17.66400391 2.686875 17.47644531 1.85546875 17.28320312 C-4.09261971 15.85507298 -4.09261971 15.85507298 -6.71484375 14.48901367 C-9.39718351 13.20493591 -12.05461869 13.21936201 -14.98046875 12.94140625 C-20.34705383 12.14721334 -25.75272705 10.77456449 -30.69921875 8.5390625 C-32.1328125 6.54296875 -32.1328125 6.54296875 -32.69921875 4.5390625 C-31.82421875 2.2890625 -31.82421875 2.2890625 -30.69921875 0.5390625 C-30.03921875 2.8490625 -29.37921875 5.1590625 -28.69921875 7.5390625 C-22.09921875 8.8590625 -15.49921875 10.1790625 -8.69921875 11.5390625 C-8.26609375 9.9303125 -7.83296875 8.3215625 -7.38671875 6.6640625 C-6.20763566 2.28461104 -5.25205466 -0.89687764 0 0 Z M5.30078125 4.5390625 C5.30078125 5.1990625 5.30078125 5.8590625 5.30078125 6.5390625 C5.96078125 6.5390625 6.62078125 6.5390625 7.30078125 6.5390625 C7.30078125 5.8790625 7.30078125 5.2190625 7.30078125 4.5390625 C6.64078125 4.5390625 5.98078125 4.5390625 5.30078125 4.5390625 Z " fill="#1F1E1C" transform="translate(283.69921875,50.4609375)"/>
<path d="M0 0 C1.65 0.33 3.3 0.66 5 1 C4.22095672 13.66970387 4.22095672 13.66970387 2 19 C0.35 18.67 -1.3 18.34 -3 18 C-2.51679152 11.7945858 -1.66681876 6.00054754 0 0 Z M2 2 C3 6 3 6 3 6 Z M1 6 C2 10 2 10 2 10 Z M0 10 C1 14 1 14 1 14 Z M-1 14 C0 16 0 16 0 16 Z " fill="#3A3735" transform="translate(267,35)"/>
<path d="M0 0 C3 0 3 0 5 1 C4.67 1.94875 4.34 2.8975 4 3.875 C2.6355542 8.55447256 2.82500659 13.16823759 3 18 C0.69 18.33 -1.62 18.66 -4 19 C-2.02 9.595 -2.02 9.595 0 0 Z M0 13 C1 16 1 16 1 16 Z " fill="#5F5E5E" transform="translate(282,33)"/>
<path d="M0 0 C2.35953094 2.35953094 2.49141413 3.77895617 3 7 C5.18537367 7.50921328 7.37342431 8.00694437 9.5625 8.5 C10.78066406 8.7784375 11.99882812 9.056875 13.25390625 9.34375 C16.92222707 9.98637554 20.28502603 10.11474823 24 10 C23.67 10.99 23.34 11.98 23 13 C15.44969398 12.48811485 7.93536382 11.13434663 1 8 C-0.6961826 5.58565652 -1.11154279 4.66925674 -0.625 1.75 C-0.41875 1.1725 -0.2125 0.595 0 0 Z " fill="#171412" transform="translate(252,51)"/>
<path d="M0 0 C0.99 0.33 1.98 0.66 3 1 C2.73445313 1.89460938 2.46890625 2.78921875 2.1953125 3.7109375 C0.30805397 10.17169845 -1.44337487 16.54886526 -2.5078125 23.20703125 C-2.67023438 23.79871094 -2.83265625 24.39039062 -3 25 C-3.66 25.33 -4.32 25.66 -5 26 C-4.56901343 17.03547936 -2.30110566 8.62647053 0 0 Z " fill="#312E2D" transform="translate(258,27)"/>
<path d="M0 0 C1.65 0 3.3 0 5 0 C5.33 0.99 5.66 1.98 6 3 C8.31 3.33 10.62 3.66 13 4 C13 4.33 13 4.66 13 5 C11.35 5 9.7 5 8 5 C8 5.66 8 6.32 8 7 C4.85375007 7.26218749 3.38162983 7.24754367 0.6875 5.5 C0.130625 5.005 -0.42625 4.51 -1 4 C-0.67 2.68 -0.34 1.36 0 0 Z " fill="#42403D" transform="translate(291,42)"/>
<path d="M0 0 C1.46726798 3.81489674 0.43336419 6.29011622 -1 10 C-2.65 9.67 -4.3 9.34 -6 9 C-6 8.34 -6 7.68 -6 7 C-5.01 7 -4.02 7 -3 7 C-2.67 5.68 -2.34 4.36 -2 3 C-1.34 3 -0.68 3 0 3 C0 2.01 0 1.02 0 0 Z " fill="#484542" transform="translate(270,44)"/>
<path d="M0 0 C0.33 0.66 0.66 1.32 1 2 C1.66 2 2.32 2 3 2 C3 2.66 3 3.32 3 4 C2.34 4 1.68 4 1 4 C0.67 4.66 0.34 5.32 0 6 C-1.98 5.34 -3.96 4.68 -6 4 C-5.01 3.67 -4.02 3.34 -3 3 C-1.33289654 1.50014391 -1.33289654 1.50014391 0 0 Z " fill="#0C0B0B" transform="translate(210,95)"/>
<path d="M0 0 C0.33 0 0.66 0 1 0 C1.05437607 1.58294782 1.09296271 3.16644256 1.125 4.75 C1.14820313 5.63171875 1.17140625 6.5134375 1.1953125 7.421875 C0.99139502 10.1135858 0.36551721 11.69904974 -1 14 C-1.66 13.67 -2.32 13.34 -3 13 C-2.01 8.71 -1.02 4.42 0 0 Z " fill="#31302E" transform="translate(302,53)"/>
<path d="M0 0 C-0.33 1.65 -0.66 3.3 -1 5 C-2.65 4.67 -4.3 4.34 -6 4 C-6 2.68 -6 1.36 -6 0 C-3 -1 -3 -1 0 0 Z M-4 1 C-4 1.66 -4 2.32 -4 3 C-3.34 3 -2.68 3 -2 3 C-2 2.34 -2 1.68 -2 1 C-2.66 1 -3.32 1 -4 1 Z " fill="#181513" transform="translate(293,54)"/>
<path d="M0 0 C0.66 0 1.32 0 2 0 C2 2.64 2 5.28 2 8 C0.68 7.67 -0.64 7.34 -2 7 C-1.125 2.25 -1.125 2.25 0 0 Z " fill="#080706" transform="translate(88,70)"/>
<path d="M0 0 C1.4540625 0.0309375 1.4540625 0.0309375 2.9375 0.0625 C2.9375 1.7125 2.9375 3.3625 2.9375 5.0625 C-0.0325 4.5675 -0.0325 4.5675 -3.0625 4.0625 C-3.3925 3.0725 -3.7225 2.0825 -4.0625 1.0625 C-3.0625 0.0625 -3.0625 0.0625 0 0 Z " fill="#080808" transform="translate(46.0625,36.9375)"/>
<path d="M0 0 C0.66 0 1.32 0 2 0 C2.86516528 4.49885947 3.30903272 7.01647791 1 11 C0.63890458 9.35567294 0.28629924 7.7094792 -0.0625 6.0625 C-0.25972656 5.14597656 -0.45695312 4.22945312 -0.66015625 3.28515625 C-0.77230469 2.53105469 -0.88445312 1.77695312 -1 1 C-0.67 0.67 -0.34 0.34 0 0 Z " fill="#1D1C18" transform="translate(302,48)"/>
<path d="M0 0 C2.0625 0.4375 2.0625 0.4375 4 1 C3.01 1.66 2.02 2.32 1 3 C1.33 4.98 1.66 6.96 2 9 C1.01 8.67 0.02 8.34 -1 8 C-1.04241723 5.66705225 -1.04092937 3.33297433 -1 1 C-0.67 0.67 -0.34 0.34 0 0 Z " fill="#CCCDCB" transform="translate(279,55)"/>
</svg>
