<?xml version="1.0" encoding="UTF-8"?>
<svg version="1.1" xmlns="http://www.w3.org/2000/svg" width="336" height="133">
<path d="M0 0 C110.88 0 221.76 0 336 0 C336 43.89 336 87.78 336 133 C225.12 133 114.24 133 0 133 C0 89.11 0 45.22 0 0 Z " fill="#F4F2EE" transform="translate(0,0)"/>
<path d="M0 0 C1.99449542 1.25115949 3.90501674 2.563122 5.8046875 3.953125 C6.7946875 4.613125 7.7846875 5.273125 8.8046875 5.953125 C9.1346875 4.963125 9.4646875 3.973125 9.8046875 2.953125 C11.9140625 1.78515625 11.9140625 1.78515625 14.5546875 0.765625 C15.41578125 0.42144531 16.276875 0.07726563 17.1640625 -0.27734375 C19.85338848 -1.06106745 22.02070706 -1.19208261 24.8046875 -1.046875 C24.4746875 -0.386875 24.1446875 0.273125 23.8046875 0.953125 C24.7946875 1.448125 24.7946875 1.448125 25.8046875 1.953125 C25.8046875 1.293125 25.8046875 0.633125 25.8046875 -0.046875 C30.30393407 0.42507394 32.11910977 1.81936747 35.0546875 5.203125 C35.74046875 5.97140625 36.42625 6.7396875 37.1328125 7.53125 C40.09730064 11.82560199 39.93234284 16.29240528 39.9375 21.390625 C39.93878906 22.61523438 39.94007813 23.83984375 39.94140625 25.1015625 C39.93753906 26.37257813 39.93367188 27.64359375 39.9296875 28.953125 C39.93355469 30.22414063 39.93742187 31.49515625 39.94140625 32.8046875 C39.94011719 34.02929688 39.93882812 35.25390625 39.9375 36.515625 C39.93637207 37.63066406 39.93524414 38.74570313 39.93408203 39.89453125 C39.81444297 42.72252777 39.58158483 45.23183142 38.8046875 47.953125 C35.52115201 49.59489274 31.90949112 49.13766539 28.3046875 49.140625 C27.51964844 49.15287109 26.73460937 49.16511719 25.92578125 49.17773438 C23.88405024 49.18298754 21.84276499 49.0753268 19.8046875 48.953125 C17.01291181 46.16134931 17.49255266 44.32128928 17.390625 40.4140625 C17.33261719 38.46113281 17.33261719 38.46113281 17.2734375 36.46875 C17.24197987 35.08854638 17.21073259 33.70833796 17.1796875 32.328125 C17.14150816 30.94007959 17.10245645 29.55205789 17.0625 28.1640625 C16.96795807 24.76055315 16.88240853 21.35705335 16.8046875 17.953125 C15.1546875 17.623125 13.5046875 17.293125 11.8046875 16.953125 C11.1446875 19.263125 10.4846875 21.573125 9.8046875 23.953125 C9.5159375 23.355 9.2271875 22.756875 8.9296875 22.140625 C7.75726724 19.75984708 7.75726724 19.75984708 5.8046875 16.953125 C6.1796875 14.765625 6.1796875 14.765625 6.8046875 12.953125 C6.1446875 12.953125 5.4846875 12.953125 4.8046875 12.953125 C4.8046875 15.263125 4.8046875 17.573125 4.8046875 19.953125 C5.4646875 19.953125 6.1246875 19.953125 6.8046875 19.953125 C6.8046875 20.943125 6.8046875 21.933125 6.8046875 22.953125 C5.8146875 23.613125 4.8246875 24.273125 3.8046875 24.953125 C3.8046875 25.613125 3.8046875 26.273125 3.8046875 26.953125 C4.7946875 26.953125 5.7846875 26.953125 6.8046875 26.953125 C6.8046875 26.293125 6.8046875 25.633125 6.8046875 24.953125 C7.7946875 24.953125 8.7846875 24.953125 9.8046875 24.953125 C9.8046875 26.933125 9.8046875 28.913125 9.8046875 30.953125 C8.4846875 30.953125 7.1646875 30.953125 5.8046875 30.953125 C6.1553125 31.88125 6.5059375 32.809375 6.8671875 33.765625 C7.8046875 36.953125 7.8046875 36.953125 6.8046875 39.953125 C7.4646875 39.953125 8.1246875 39.953125 8.8046875 39.953125 C8.8046875 39.293125 8.8046875 38.633125 8.8046875 37.953125 C9.4646875 37.953125 10.1246875 37.953125 10.8046875 37.953125 C11.15152759 43.24243632 11.15152759 43.24243632 10.8046875 45.953125 C8.9921875 48.015625 8.9921875 48.015625 6.8046875 48.953125 C5.8146875 48.623125 4.8246875 48.293125 3.8046875 47.953125 C3.1446875 47.953125 2.4846875 47.953125 1.8046875 47.953125 C1.8046875 48.283125 1.8046875 48.613125 1.8046875 48.953125 C-1.8253125 48.953125 -5.4553125 48.953125 -9.1953125 48.953125 C-11.75558394 43.02407535 -11.60327906 37.05030351 -11.7578125 30.703125 C-11.81758037 28.53113524 -11.88118492 26.35924656 -11.94921875 24.1875 C-11.97314697 23.23069336 -11.9970752 22.27388672 -12.02172852 21.28808594 C-12.04842365 18.93050852 -12.04842365 18.93050852 -13.1953125 16.953125 C-14.5153125 17.283125 -15.8353125 17.613125 -17.1953125 17.953125 C-17.8553125 27.523125 -18.5153125 37.093125 -19.1953125 46.953125 C-27.17244848 49.23230671 -27.17244848 49.23230671 -31.3828125 49.640625 C-32.20136719 49.72699219 -33.01992187 49.81335938 -33.86328125 49.90234375 C-36.1953125 49.953125 -36.1953125 49.953125 -40.1953125 48.953125 C-40.1953125 33.113125 -40.1953125 17.273125 -40.1953125 0.953125 C-36.1381442 0.14169134 -32.6714538 -0.26980985 -28.5703125 -0.359375 C-26.88035156 -0.41544922 -26.88035156 -0.41544922 -25.15625 -0.47265625 C-22.1953125 -0.046875 -22.1953125 -0.046875 -20.296875 1.97265625 C-19.93335938 2.62621094 -19.56984375 3.27976562 -19.1953125 3.953125 C-17.803125 2.9940625 -17.803125 2.9940625 -16.3828125 2.015625 C-11.26663532 -1.29484259 -5.68050603 -2.70885341 0 0 Z " fill="#080808" transform="translate(207.1953125,51.046875)"/>
<path d="M0 0 C19.76108503 -0.66197183 19.76108503 -0.66197183 28.875 4.6875 C34.20648534 10.48941052 35.62367309 16.34709027 35.375 24.0625 C35.37371094 24.82626953 35.37242188 25.59003906 35.37109375 26.37695312 C35.28395339 32.03623525 34.95278761 37.58540452 31.265625 42.14453125 C24.8299081 47.4702117 19.35434255 49.38115981 11 50 C10.08992188 50.07734375 9.17984375 50.1546875 8.2421875 50.234375 C0.41089278 50.6024254 -6.22832474 49.0814002 -13 45 C-13.495 43.515 -13.495 43.515 -14 42 C-13.34 42 -12.68 42 -12 42 C-12 41.34 -12 40.68 -12 40 C-13.485 40.495 -13.485 40.495 -15 41 C-17.80844958 38.72228105 -18.91735478 37.63802112 -19.390625 33.984375 C-19.34421875 32.91703125 -19.2978125 31.8496875 -19.25 30.75 C-19.21390625 29.67234375 -19.1778125 28.5946875 -19.140625 27.484375 C-19.09421875 26.66453125 -19.0478125 25.8446875 -19 25 C-18.01 25.33 -17.02 25.66 -16 26 C-15.67 25.34 -15.34 24.68 -15 24 C-15.66 24 -16.32 24 -17 24 C-17.33 23.01 -17.66 22.02 -18 21 C-16.35 20.34 -14.7 19.68 -13 19 C-12 22 -12 22 -13 25 C-12.071875 24.505 -11.14375 24.01 -10.1875 23.5 C-7 22 -7 22 -4 22 C-4 22.66 -4 23.32 -4 24 C-4.66 24 -5.32 24 -6 24 C-5.67 24.66 -5.34 25.32 -5 26 C-2.67843403 26.40729228 -0.3431213 26.74438677 2 27 C2 25.68 2 24.36 2 23 C1.34 23 0.68 23 0 23 C-0.33 21.68 -0.66 20.36 -1 19 C0.32 19.33 1.64 19.66 3 20 C3.33 19.01 3.66 18.02 4 17 C4.495 24.92 4.495 24.92 5 33 C6.65 33.33 8.3 33.66 10 34 C12.08141554 31.91858446 11.73088761 27.81393047 12.0625 24.9375 C12.15337891 24.17888672 12.24425781 23.42027344 12.33789062 22.63867188 C12.5624374 20.7595699 12.78170978 18.87983905 13 17 C9.7 16.67 6.4 16.34 3 16 C3.309375 14.576875 3.309375 14.576875 3.625 13.125 C3.74875 12.09375 3.8725 11.0625 4 10 C3.34 9.34 2.68 8.68 2 8 C1 7 0 6 -1 5 C0.32 5 1.64 5 3 5 C3 4.01 3 3.02 3 2 C1.68 2.33 0.36 2.66 -1 3 C-0.67 2.01 -0.34 1.02 0 0 Z " fill="#0D0D0D" transform="translate(85,51)"/>
<path d="M0 0 C0 1.65 0 3.3 0 5 C-1.98 5.99 -1.98 5.99 -4 7 C-4 8.32 -4 9.64 -4 11 C-3.01 11.33 -2.02 11.66 -1 12 C-1 11.34 -1 10.68 -1 10 C-1.66 9.67 -2.32 9.34 -3 9 C-1.74458443 6.48916886 -0.49936512 6.12874554 2 5 C1.67 4.01 1.34 3.02 1 2 C1.66 2 2.32 2 3 2 C3.66 2.66 4.32 3.32 5 4 C5.99 4 6.98 4 8 4 C8 3.34 8 2.68 8 2 C7.01 1.67 6.02 1.34 5 1 C5 0.67 5 0.34 5 0 C6.65 0 8.3 0 10 0 C10 0.66 10 1.32 10 2 C10.66 2.33 11.32 2.66 12 3 C11.67 4.32 11.34 5.64 11 7 C9.68 7 8.36 7 7 7 C6.67 7.66 6.34 8.32 6 9 C6.99 9 7.98 9 9 9 C9 9.66 9 10.32 9 11 C10.65 10.67 12.3 10.34 14 10 C14 9.34 14 8.68 14 8 C14.66 8 15.32 8 16 8 C16.495 8.99 16.495 8.99 17 10 C18.65 10 20.3 10 22 10 C21.67 10.66 21.34 11.32 21 12 C18.69 12 16.38 12 14 12 C13.67 13.32 13.34 14.64 13 16 C16.96 16.33 20.92 16.66 25 17 C25 21.62 25 26.24 25 31 C21 33 21 33 12 33 C12 43.23 12 53.46 12 64 C7.13917314 64.69440384 2.95955759 65.13616526 -1.875 65.125 C-3.00679687 65.12757812 -4.13859375 65.13015625 -5.3046875 65.1328125 C-8 65 -8 65 -9 64 C-9.15888092 61.71011219 -9.25138073 59.41556559 -9.31640625 57.12109375 C-9.33718735 56.4344313 -9.35796844 55.74776886 -9.37937927 55.04029846 C-9.44494143 52.83947065 -9.50379015 50.63852025 -9.5625 48.4375 C-9.60567892 46.94855486 -9.649293 45.45962227 -9.69335938 43.97070312 C-9.8006293 40.31393447 -9.90187772 36.65702682 -10 33 C-11.98 33 -13.96 33 -16 33 C-19.06475363 27.23826317 -19.19937786 23.37259801 -18 17 C-14.535 16.505 -14.535 16.505 -11 16 C-10.85304688 15.26394531 -10.70609375 14.52789062 -10.5546875 13.76953125 C-8.49383751 4.8036494 -8.49383751 4.8036494 -4.9375 1.8125 C-2 0 -2 0 0 0 Z " fill="#050505" transform="translate(41,35)"/>
<path d="M0 0 C0.83724609 -0.01224609 1.67449219 -0.02449219 2.53710938 -0.03710938 C3.73883789 -0.04000977 3.73883789 -0.04000977 4.96484375 -0.04296875 C5.70210693 -0.04707764 6.43937012 -0.05118652 7.19897461 -0.05541992 C9.0625 0.1875 9.0625 0.1875 11.0625 2.1875 C11.0625 3.1775 11.0625 4.1675 11.0625 5.1875 C11.75214844 4.8265625 12.44179687 4.465625 13.15234375 4.09375 C19.51601571 0.95119595 23.97497058 -0.39344503 31.0625 0.1875 C31.5575 1.1775 31.5575 1.1775 32.0625 2.1875 C31.4025 2.8475 30.7425 3.5075 30.0625 4.1875 C31.0525 3.8575 32.0425 3.5275 33.0625 3.1875 C33.1875 8.9375 33.1875 8.9375 32.0625 11.1875 C31.9935528 12.56092831 31.97782292 13.93752102 32 15.3125 C32.020625 16.59125 32.04125 17.87 32.0625 19.1875 C28.2486223 21.09443885 23.4362414 20.07551968 19.25 19.9296875 C17.6721875 20.05730469 17.6721875 20.05730469 16.0625 20.1875 C15.4025 21.1775 14.7425 22.1675 14.0625 23.1875 C13.4025 23.1875 12.7425 23.1875 12.0625 23.1875 C12.18818359 24.76337891 12.18818359 24.76337891 12.31640625 26.37109375 C12.86836318 33.77666282 13.35409587 40.82540353 12.0625 48.1875 C10.47312444 49.77687556 8.82350154 49.31731143 6.625 49.3203125 C5.28308594 49.32224609 5.28308594 49.32224609 3.9140625 49.32421875 C2.97304687 49.32035156 2.03203125 49.31648438 1.0625 49.3125 C-0.34902344 49.31830078 -0.34902344 49.31830078 -1.7890625 49.32421875 C-2.68367187 49.32292969 -3.57828125 49.32164063 -4.5 49.3203125 C-5.32628906 49.31918457 -6.15257813 49.31805664 -7.00390625 49.31689453 C-8.9375 49.1875 -8.9375 49.1875 -9.9375 48.1875 C-10.0258967 45.8118148 -10.05280305 43.46541326 -10.03515625 41.08984375 C-10.0337413 40.38098526 -10.03232635 39.67212677 -10.03086853 38.94178772 C-10.02525443 36.66948288 -10.01269963 34.39727525 -10 32.125 C-9.99498681 30.58789204 -9.99042359 29.05078255 -9.98632812 27.51367188 C-9.97528042 23.73824358 -9.95800641 19.96288829 -9.9375 16.1875 C-8.9475 16.5175 -7.9575 16.8475 -6.9375 17.1875 C-7.2675 16.1975 -7.5975 15.2075 -7.9375 14.1875 C-6.6175 14.1875 -5.2975 14.1875 -3.9375 14.1875 C-3.9375 15.1775 -3.9375 16.1675 -3.9375 17.1875 C-3.2775 17.1875 -2.6175 17.1875 -1.9375 17.1875 C-1.7209375 16.2903125 -1.7209375 16.2903125 -1.5 15.375 C-1.0502561 13.62599596 -0.50857659 11.90072977 0.0625 10.1875 C-0.2675 9.1975 -0.5975 8.2075 -0.9375 7.1875 C-1.5975 7.1875 -2.2575 7.1875 -2.9375 7.1875 C-2.9375 8.8375 -2.9375 10.4875 -2.9375 12.1875 C-3.5975 12.1875 -4.2575 12.1875 -4.9375 12.1875 C-4.9375 11.5275 -4.9375 10.8675 -4.9375 10.1875 C-5.5975 10.1875 -6.2575 10.1875 -6.9375 10.1875 C-6.9375 10.8475 -6.9375 11.5075 -6.9375 12.1875 C-7.9275 12.5175 -8.9175 12.8475 -9.9375 13.1875 C-9.96436553 11.20840602 -9.98383375 9.22921029 -10 7.25 C-10.01160156 6.14785156 -10.02320312 5.04570313 -10.03515625 3.91015625 C-9.82759772 -1.87657551 -4.5631538 0.00349667 0 0 Z " fill="#0B0A0A" transform="translate(132.9375,50.8125)"/>
<path d="M0 0 C-0.33 0.66 -0.66 1.32 -1 2 C-0.34 2.33 0.32 2.66 1 3 C1 2.34 1 1.68 1 1 C5.49924657 1.47194894 7.31442227 2.86624247 10.25 6.25 C10.93578125 7.01828125 11.6215625 7.7865625 12.328125 8.578125 C15.29261314 12.87247699 15.12765534 17.33928028 15.1328125 22.4375 C15.13474609 24.27441406 15.13474609 24.27441406 15.13671875 26.1484375 C15.13285156 27.41945313 15.12898438 28.69046875 15.125 30 C15.13080078 31.90652344 15.13080078 31.90652344 15.13671875 33.8515625 C15.13542969 35.07617188 15.13414062 36.30078125 15.1328125 37.5625 C15.13168457 38.67753906 15.13055664 39.79257813 15.12939453 40.94140625 C15.00975547 43.76940277 14.77689733 46.27870642 14 49 C10.71646451 50.64176774 7.10480362 50.18454039 3.5 50.1875 C2.32244141 50.20586914 2.32244141 50.20586914 1.12109375 50.22460938 C-0.92063726 50.22986254 -2.96192251 50.1222018 -5 50 C-7.79177569 47.20822431 -7.31213484 45.36816428 -7.4140625 41.4609375 C-7.45273438 40.15898438 -7.49140625 38.85703125 -7.53125 37.515625 C-7.56270763 36.13542138 -7.59395491 34.75521296 -7.625 33.375 C-7.66317934 31.98695459 -7.70223105 30.59893289 -7.7421875 29.2109375 C-7.83672943 25.80742815 -7.92227897 22.40392835 -8 19 C-9.65 18.67 -11.3 18.34 -13 18 C-13.66 20.31 -14.32 22.62 -15 25 C-15.433125 24.1028125 -15.433125 24.1028125 -15.875 23.1875 C-17.04742026 20.80672208 -17.04742026 20.80672208 -19 18 C-17.625 14.3125 -17.625 14.3125 -16 11 C-14.68 11 -13.36 11 -12 11 C-10.98459888 6.89776415 -10.98459888 6.89776415 -12 3 C-4.71428571 -0.42857143 -4.71428571 -0.42857143 0 0 Z " fill="#0B0B0B" transform="translate(232,50)"/>
<path d="M0 0 C0.99773437 0.20238281 1.99546875 0.40476562 3.0234375 0.61328125 C4.61478516 0.93039063 4.61478516 0.93039063 6.23828125 1.25390625 C7.28113281 1.475625 8.32398438 1.69734375 9.3984375 1.92578125 C10.30722656 2.085625 11.21601563 2.24546875 12.15234375 2.41015625 C14.5859375 2.86328125 14.5859375 2.86328125 18.3984375 3.92578125 C18.7284375 4.91578125 19.0584375 5.90578125 19.3984375 6.92578125 C20.4915625 6.88453125 21.5846875 6.84328125 22.7109375 6.80078125 C29.84910956 6.81348262 37.56573361 7.5009714 43.3984375 11.92578125 C43.0684375 15.22578125 42.7384375 18.52578125 42.3984375 21.92578125 C41.4084375 22.25578125 40.4184375 22.58578125 39.3984375 22.92578125 C39.73875 24.56546875 39.73875 24.56546875 40.0859375 26.23828125 C40.77859999 31.69177886 39.53282628 36.89472197 37.3984375 41.92578125 C33.94597926 44.22742007 32.45105037 44.27068447 28.3984375 43.92578125 C27.7384375 43.26578125 27.0784375 42.60578125 26.3984375 41.92578125 C28.0690625 41.95671875 28.0690625 41.95671875 29.7734375 41.98828125 C33.23059671 42.18958843 33.23059671 42.18958843 35.3984375 40.92578125 C37.21678719 35.69521979 37.63204296 30.41550964 37.3984375 24.92578125 C33.7684375 23.60578125 30.1384375 22.28578125 26.3984375 20.92578125 C26.7284375 19.60578125 27.0584375 18.28578125 27.3984375 16.92578125 C29.0484375 16.92578125 30.6984375 16.92578125 32.3984375 16.92578125 C32.3984375 18.24578125 32.3984375 19.56578125 32.3984375 20.92578125 C35.0384375 21.25578125 37.6784375 21.58578125 40.3984375 21.92578125 C40.3984375 18.95578125 40.3984375 15.98578125 40.3984375 12.92578125 C37.98334309 12.25291913 35.56663394 11.58732113 33.1484375 10.92578125 C32.46652344 10.735 31.78460938 10.54421875 31.08203125 10.34765625 C27.69242838 9.42621081 24.94064774 8.92578125 21.3984375 8.92578125 C20.8896545 10.48544343 20.39180281 12.04867366 19.8984375 13.61328125 C19.62 14.48339844 19.3415625 15.35351562 19.0546875 16.25 C18.39992945 18.91969802 18.28012255 21.18974809 18.3984375 23.92578125 C19.02492188 24.20292969 19.65140625 24.48007812 20.296875 24.765625 C21.11414063 25.12785156 21.93140625 25.49007812 22.7734375 25.86328125 C23.58554687 26.22292969 24.39765625 26.58257812 25.234375 26.953125 C26.63527535 27.58277155 28.02469034 28.23890767 29.3984375 28.92578125 C29.3984375 30.57578125 29.3984375 32.22578125 29.3984375 33.92578125 C26.4284375 33.43078125 26.4284375 33.43078125 23.3984375 32.92578125 C23.3984375 31.60578125 23.3984375 30.28578125 23.3984375 28.92578125 C20.7584375 28.59578125 18.1184375 28.26578125 15.3984375 27.92578125 C15.0684375 31.55578125 14.7384375 35.18578125 14.3984375 38.92578125 C15.3471875 38.88453125 16.2959375 38.84328125 17.2734375 38.80078125 C20.3984375 38.92578125 20.3984375 38.92578125 22.3984375 40.92578125 C20.91875426 40.78528607 19.43969234 40.63823299 17.9609375 40.48828125 C17.13722656 40.40707031 16.31351562 40.32585937 15.46484375 40.2421875 C13.3984375 39.92578125 13.3984375 39.92578125 12.3984375 38.92578125 C8.91190343 38.29873395 5.42294768 37.73263444 1.91992188 37.20703125 C-2.71072812 36.45199031 -6.56571603 35.47407622 -10.6015625 32.92578125 C-12.39992835 27.53068369 -10.0738225 21.85867087 -8.8515625 16.42578125 C-8.58601562 15.17667969 -8.32046875 13.92757812 -8.046875 12.640625 C-7.78132812 11.44566406 -7.51578125 10.25070313 -7.2421875 9.01953125 C-7.00016602 7.92318359 -6.75814453 6.82683594 -6.50878906 5.69726562 C-5.24922173 1.84941623 -4.21474871 -0.12024058 0 0 Z " fill="#F8F8F8" transform="translate(263.6015625,25.07421875)"/>
<path d="M0 0 C0.625 1.875 0.625 1.875 1 4 C0.34 4.66 -0.32 5.32 -1 6 C0.32 6.33 1.64 6.66 3 7 C2.67 5.35 2.34 3.7 2 2 C3.32 1.34 4.64 0.68 6 0 C6.33 0.33 6.66 0.66 7 1 C7.99 1 8.98 1 10 1 C10 1.99 10 2.98 10 4 C11.98 3.34 13.96 2.68 16 2 C16 1.34 16 0.68 16 0 C19 1.5 19 1.5 22 3 C22.33 2.01 22.66 1.02 23 0 C25.475 0.495 25.475 0.495 28 1 C27.34 2.98 26.68 4.96 26 7 C24.68 7 23.36 7 22 7 C21.67 8.32 21.34 9.64 21 11 C20.01 10.67 19.02 10.34 18 10 C18 12.31 18 14.62 18 17 C18.66 17 19.32 17 20 17 C20 17.99 20 18.98 20 20 C19.01 20.66 18.02 21.32 17 22 C17 22.66 17 23.32 17 24 C17.99 24 18.98 24 20 24 C20 23.34 20 22.68 20 22 C20.99 22 21.98 22 23 22 C23 23.98 23 25.96 23 28 C21.68 28 20.36 28 19 28 C19.5259375 29.3921875 19.5259375 29.3921875 20.0625 30.8125 C21 34 21 34 20 37 C20.66 37 21.32 37 22 37 C22 36.34 22 35.68 22 35 C22.66 35 23.32 35 24 35 C24.34684009 40.28931132 24.34684009 40.28931132 24 43 C22.1875 45.0625 22.1875 45.0625 20 46 C19.01 45.67 18.02 45.34 17 45 C16.34 45 15.68 45 15 45 C15 45.33 15 45.66 15 46 C11.37 46 7.74 46 4 46 C1.43972856 40.07095035 1.59203344 34.09717851 1.4375 27.75 C1.37773213 25.57801024 1.31412758 23.40612156 1.24609375 21.234375 C1.22216553 20.27756836 1.1982373 19.32076172 1.17358398 18.33496094 C1.14688885 15.97738352 1.14688885 15.97738352 0 14 C-1.32 14.33 -2.64 14.66 -4 15 C-4.33 17.97 -4.66 20.94 -5 24 C-5.33 24 -5.66 24 -6 24 C-6.33 22.02 -6.66 20.04 -7 18 C-7 18.99 -7 19.98 -7 21 C-10 22 -10 22 -13 21 C-12.67 19.35 -12.34 17.7 -12 16 C-11.01 16 -10.02 16 -9 16 C-9.515625 15.4225 -10.03125 14.845 -10.5625 14.25 C-12 12 -12 12 -11.6875 9.75 C-11.460625 9.1725 -11.23375 8.595 -11 8 C-11.99 8 -12.98 8 -14 8 C-14 7.34 -14 6.68 -14 6 C-12.68 5.67 -11.36 5.34 -10 5 C-9.01 6.32 -8.02 7.64 -7 9 C-7 7.68 -7 6.36 -7 5 C-5.35 4.34 -3.7 3.68 -2 3 C-2 2.34 -2 1.68 -2 1 C-1.34 0.67 -0.68 0.34 0 0 Z " fill="#151515" transform="translate(194,54)"/>
<path d="M0 0 C1.32 0 2.64 0 4 0 C3.34 1.32 2.68 2.64 2 4 C1.34 4 0.68 4 0 4 C0 4.66 0 5.32 0 6 C0.66 6 1.32 6 2 6 C1.67 7.65 1.34 9.3 1 11 C3.05270463 9.15811388 3.05270463 9.15811388 4 7 C4.99 7 5.98 7 7 7 C7 6.34 7 5.68 7 5 C7.99 5.33 8.98 5.66 10 6 C9.34 6 8.68 6 8 6 C8 7.32 8 8.64 8 10 C8.99 9.34 9.98 8.68 11 8 C11.66 7.67 12.32 7.34 13 7 C13.33 6.01 13.66 5.02 14 4 C14.66 4 15.32 4 16 4 C16 3.34 16 2.68 16 2 C16.99 2.33 17.98 2.66 19 3 C19 3.66 19 4.32 19 5 C18.34 5 17.68 5 17 5 C16.34 6.65 15.68 8.3 15 10 C15.99 10.33 16.98 10.66 18 11 C18 11.66 18 12.32 18 13 C18.66 13 19.32 13 20 13 C20.8142613 15.8121517 21.08776961 18.15587063 20.9140625 21.07421875 C20.87023437 21.82380859 20.82640625 22.57339844 20.78125 23.34570312 C20.7296875 24.11849609 20.678125 24.89128906 20.625 25.6875 C20.58117187 26.47189453 20.53734375 27.25628906 20.4921875 28.06445312 C20.13096918 33.86903082 20.13096918 33.86903082 19 35 C17.52347336 35.09880797 16.04232764 35.13079245 14.5625 35.1328125 C13.22058594 35.13474609 13.22058594 35.13474609 11.8515625 35.13671875 C10.91054687 35.13285156 9.96953125 35.12898438 9 35.125 C7.58847656 35.13080078 7.58847656 35.13080078 6.1484375 35.13671875 C5.25382813 35.13542969 4.35921875 35.13414063 3.4375 35.1328125 C2.61121094 35.13168457 1.78492187 35.13055664 0.93359375 35.12939453 C-1 35 -1 35 -2 34 C-2.0883967 31.6243148 -2.11530305 29.27791326 -2.09765625 26.90234375 C-2.0962413 26.19348526 -2.09482635 25.48462677 -2.09336853 24.75428772 C-2.08775443 22.48198288 -2.07519963 20.20977525 -2.0625 17.9375 C-2.05748681 16.40039204 -2.05292359 14.86328255 -2.04882812 13.32617188 C-2.03778042 9.55074358 -2.02050641 5.77538829 -2 2 C-1.01 2.33 -0.02 2.66 1 3 C0.67 2.01 0.34 1.02 0 0 Z " fill="#070707" transform="translate(125,65)"/>
<path d="M0 0 C16.5625 1.5625 16.5625 1.5625 20 5 C19.91062197 6.52519276 19.75462854 8.04681929 19.5625 9.5625 C19.46066406 10.38878906 19.35882813 11.21507812 19.25390625 12.06640625 C19.17011719 12.70449219 19.08632813 13.34257813 19 14 C13.25 14.125 13.25 14.125 11 13 C11 11.68 11 10.36 11 9 C9.35 9 7.7 9 6 9 C5.67 10.32 5.34 11.64 5 13 C5.78246094 13.20496094 6.56492187 13.40992188 7.37109375 13.62109375 C8.38300781 13.89050781 9.39492188 14.15992188 10.4375 14.4375 C11.44683594 14.70433594 12.45617187 14.97117187 13.49609375 15.24609375 C16 16 16 16 17 17 C17.25284513 21.04552213 16.99694904 24.81557587 16.3125 28.8125 C16.12107422 29.93591797 16.12107422 29.93591797 15.92578125 31.08203125 C15 33 15 33 12.96875 34.37890625 C8.70654757 35.27060386 5.33514173 34.24448084 1.1875 33.125 C0.39923828 32.92519531 -0.38902344 32.72539063 -1.20117188 32.51953125 C-3.13762599 32.02661566 -5.06933589 31.51512758 -7 31 C-7.125 23.375 -7.125 23.375 -6 20 C-3.36 20.33 -0.72 20.66 2 21 C2 22.32 2 23.64 2 25 C3.98 25.33 5.96 25.66 8 26 C8 24.35 8 22.7 8 21 C7.30132812 20.80664062 6.60265625 20.61328125 5.8828125 20.4140625 C4.97273438 20.15367188 4.06265625 19.89328125 3.125 19.625 C2.22007812 19.36976562 1.31515625 19.11453125 0.3828125 18.8515625 C-2 18 -2 18 -4 16 C-3.65428657 10.35334727 -1.90939746 5.29587597 0 0 Z " fill="#F6F6F6" transform="translate(285,33)"/>
<path d="M0 0 C0 0.99 0 1.98 0 3 C1.98 2.34 3.96 1.68 6 1 C5.773125 1.5775 5.54625 2.155 5.3125 2.75 C5.209375 3.4925 5.10625 4.235 5 5 C5.515625 5.61875 6.03125 6.2375 6.5625 6.875 C7.036875 7.57625 7.51125 8.2775 8 9 C7.1875 12.25 7.1875 12.25 6 15 C6.9075 14.79375 7.815 14.5875 8.75 14.375 C12.21546863 13.97513823 13.09470856 14.34524705 16 16 C15.8863485 18.62594784 15.75960946 21.25011547 15.625 23.875 C15.5940625 24.62136719 15.563125 25.36773437 15.53125 26.13671875 C15.2265625 31.7734375 15.2265625 31.7734375 13 34 C8.44444444 33.44444444 8.44444444 33.44444444 7 32 C6.76518307 29.81707226 6.58636677 27.62796826 6.4375 25.4375 C6.31181641 23.64119141 6.31181641 23.64119141 6.18359375 21.80859375 C6.12300781 20.88175781 6.06242187 19.95492187 6 19 C5.01 19 4.02 19 3 19 C3 19.99 3 20.98 3 22 C3.66 22 4.32 22 5 22 C5 23.32 5 24.64 5 26 C2.03 26 -0.94 26 -4 26 C-3.67 25.01 -3.34 24.02 -3 23 C-2.34 23 -1.68 23 -1 23 C-1 22.34 -1 21.68 -1 21 C-5.455 22.485 -5.455 22.485 -10 24 C-10 22.35 -10 20.7 -10 19 C-11.98 19.99 -11.98 19.99 -14 21 C-14 21.66 -14 22.32 -14 23 C-13.34 23 -12.68 23 -12 23 C-12.33 23.99 -12.66 24.98 -13 26 C-13.33 25.34 -13.66 24.68 -14 24 C-14.66 24 -15.32 24 -16 24 C-16.23382264 17.33605488 -16.25680674 11.6227754 -11.6875 6.3125 C-10.800625 5.549375 -9.91375 4.78625 -9 4 C-8.154375 3.236875 -7.30875 2.47375 -6.4375 1.6875 C-4 0 -4 0 0 0 Z " fill="#0F0F0F" transform="translate(82,52)"/>
<path d="M0 0 C0.625 1.875 0.625 1.875 1 4 C0.34 4.66 -0.32 5.32 -1 6 C0.32 6.33 1.64 6.66 3 7 C2.67 5.35 2.34 3.7 2 2 C3.32 1.34 4.64 0.68 6 0 C6.33 0.33 6.66 0.66 7 1 C7.99 1 8.98 1 10 1 C10 1.99 10 2.98 10 4 C11.98 3.34 13.96 2.68 16 2 C16 1.34 16 0.68 16 0 C19 1.5 19 1.5 22 3 C22.33 2.01 22.66 1.02 23 0 C25.475 0.495 25.475 0.495 28 1 C27.34 2.98 26.68 4.96 26 7 C24.68 7 23.36 7 22 7 C21.67 8.32 21.34 9.64 21 11 C20.01 10.67 19.02 10.34 18 10 C18 11.65 18 13.3 18 15 C16.68 15 15.36 15 14 15 C14 16.32 14 17.64 14 19 C13.030625 19.28875 12.06125 19.5775 11.0625 19.875 C7.89335797 20.64214682 7.89335797 20.64214682 7 23 C6.34 23 5.68 23 5 23 C4.34 22.34 3.68 21.68 3 21 C2.67 21 2.34 21 2 21 C1.34 18.69 0.68 16.38 0 14 C-1.32 14.33 -2.64 14.66 -4 15 C-4.33 17.97 -4.66 20.94 -5 24 C-5.33 24 -5.66 24 -6 24 C-6.33 22.02 -6.66 20.04 -7 18 C-7 18.99 -7 19.98 -7 21 C-10 22 -10 22 -13 21 C-12.67 19.35 -12.34 17.7 -12 16 C-11.01 16 -10.02 16 -9 16 C-9.515625 15.4225 -10.03125 14.845 -10.5625 14.25 C-12 12 -12 12 -11.6875 9.75 C-11.460625 9.1725 -11.23375 8.595 -11 8 C-11.99 8 -12.98 8 -14 8 C-14 7.34 -14 6.68 -14 6 C-12.68 5.67 -11.36 5.34 -10 5 C-9.01 6.32 -8.02 7.64 -7 9 C-7 7.68 -7 6.36 -7 5 C-5.35 4.34 -3.7 3.68 -2 3 C-2 2.34 -2 1.68 -2 1 C-1.34 0.67 -0.68 0.34 0 0 Z " fill="#191918" transform="translate(194,54)"/>
<path d="M0 0 C0.99773437 0.20238281 1.99546875 0.40476562 3.0234375 0.61328125 C4.61478516 0.93039063 4.61478516 0.93039063 6.23828125 1.25390625 C7.28113281 1.475625 8.32398438 1.69734375 9.3984375 1.92578125 C10.30722656 2.085625 11.21601563 2.24546875 12.15234375 2.41015625 C14.5859375 2.86328125 14.5859375 2.86328125 18.3984375 3.92578125 C18.7284375 4.91578125 19.0584375 5.90578125 19.3984375 6.92578125 C20.4915625 6.88453125 21.5846875 6.84328125 22.7109375 6.80078125 C29.84910956 6.81348262 37.56573361 7.5009714 43.3984375 11.92578125 C43.0684375 15.22578125 42.7384375 18.52578125 42.3984375 21.92578125 C41.4084375 22.25578125 40.4184375 22.58578125 39.3984375 22.92578125 C39.73875 24.56546875 39.73875 24.56546875 40.0859375 26.23828125 C40.77859999 31.69177886 39.53282628 36.89472197 37.3984375 41.92578125 C33.94597926 44.22742007 32.45105037 44.27068447 28.3984375 43.92578125 C27.7384375 43.26578125 27.0784375 42.60578125 26.3984375 41.92578125 C28.0690625 41.95671875 28.0690625 41.95671875 29.7734375 41.98828125 C33.23059671 42.18958843 33.23059671 42.18958843 35.3984375 40.92578125 C37.21678719 35.69521979 37.63204296 30.41550964 37.3984375 24.92578125 C33.7684375 23.60578125 30.1384375 22.28578125 26.3984375 20.92578125 C26.7284375 19.60578125 27.0584375 18.28578125 27.3984375 16.92578125 C29.0484375 16.92578125 30.6984375 16.92578125 32.3984375 16.92578125 C32.3984375 18.24578125 32.3984375 19.56578125 32.3984375 20.92578125 C35.0384375 21.25578125 37.6784375 21.58578125 40.3984375 21.92578125 C40.3984375 18.95578125 40.3984375 15.98578125 40.3984375 12.92578125 C37.98334309 12.25291913 35.56663394 11.58732113 33.1484375 10.92578125 C32.46652344 10.735 31.78460938 10.54421875 31.08203125 10.34765625 C27.69242838 9.42621081 24.94064774 8.92578125 21.3984375 8.92578125 C20.8896545 10.48544343 20.39180281 12.04867366 19.8984375 13.61328125 C19.62 14.48339844 19.3415625 15.35351562 19.0546875 16.25 C18.39992945 18.91969802 18.28012255 21.18974809 18.3984375 23.92578125 C19.02492188 24.20292969 19.65140625 24.48007812 20.296875 24.765625 C21.11414063 25.12785156 21.93140625 25.49007812 22.7734375 25.86328125 C23.58554687 26.22292969 24.39765625 26.58257812 25.234375 26.953125 C26.63527535 27.58277155 28.02469034 28.23890767 29.3984375 28.92578125 C29.3984375 30.57578125 29.3984375 32.22578125 29.3984375 33.92578125 C26.4284375 33.43078125 26.4284375 33.43078125 23.3984375 32.92578125 C23.3984375 31.60578125 23.3984375 30.28578125 23.3984375 28.92578125 C20.7584375 28.59578125 18.1184375 28.26578125 15.3984375 27.92578125 C15.0684375 31.55578125 14.7384375 35.18578125 14.3984375 38.92578125 C15.3471875 38.88453125 16.2959375 38.84328125 17.2734375 38.80078125 C20.3984375 38.92578125 20.3984375 38.92578125 22.3984375 40.92578125 C20.91875426 40.78528607 19.43969234 40.63823299 17.9609375 40.48828125 C17.13722656 40.40707031 16.31351562 40.32585937 15.46484375 40.2421875 C13.3984375 39.92578125 13.3984375 39.92578125 12.3984375 38.92578125 C8.91190343 38.29873395 5.42294768 37.73263444 1.91992188 37.20703125 C-2.71072812 36.45199031 -6.56571603 35.47407622 -10.6015625 32.92578125 C-12.39992835 27.53068369 -10.0738225 21.85867087 -8.8515625 16.42578125 C-8.58601562 15.17667969 -8.32046875 13.92757812 -8.046875 12.640625 C-7.78132812 11.44566406 -7.51578125 10.25070313 -7.2421875 9.01953125 C-7.00016602 7.92318359 -6.75814453 6.82683594 -6.50878906 5.69726562 C-5.24922173 1.84941623 -4.21474871 -0.12024058 0 0 Z M-2.6015625 1.92578125 C-5.08212913 6.5108116 -6.04389215 11.31974228 -7.2265625 16.36328125 C-7.45601563 17.30494141 -7.68546875 18.24660156 -7.921875 19.21679688 C-8.1384375 20.13009766 -8.355 21.04339844 -8.578125 21.984375 C-8.77486816 22.81251709 -8.97161133 23.64065918 -9.17431641 24.49389648 C-9.6180661 27.01971977 -9.67626973 29.36663104 -9.6015625 31.92578125 C-0.45689857 35.54536191 -0.45689857 35.54536191 9.2109375 37.05078125 C11.73293295 36.02615356 11.73293295 36.02615356 12.9609375 32.80078125 C13.46942784 31.18471712 13.94294395 29.55757515 14.3984375 27.92578125 C14.92824219 26.13333984 14.92824219 26.13333984 15.46875 24.3046875 C17.2501358 18.06556807 18.64291657 12.47613429 18.3984375 5.92578125 C16.02578689 5.24960601 13.65088395 4.58469899 11.2734375 3.92578125 C10.60828125 3.735 9.943125 3.54421875 9.2578125 3.34765625 C5.199817 2.2336967 1.60157776 1.71627893 -2.6015625 1.92578125 Z " fill="#514C4B" transform="translate(263.6015625,25.07421875)"/>
<path d="M0 0 C0.93134766 0.06123047 1.86269531 0.12246094 2.82226562 0.18554688 C5.11210961 0.33820314 7.39979615 0.5059463 9.6875 0.6875 C9.88422365 2.41564161 10.06946799 4.14509197 10.25 5.875 C10.35441406 6.83792969 10.45882812 7.80085938 10.56640625 8.79296875 C10.68508751 11.62983377 10.36515639 13.94173671 9.6875 16.6875 C6.53313636 16.77512121 3.65328836 16.85263114 0.6875 15.6875 C0.3575 14.6975 0.0275 13.7075 -0.3125 12.6875 C-0.9725 12.6875 -1.6325 12.6875 -2.3125 12.6875 C-2.3125 13.3475 -2.3125 14.0075 -2.3125 14.6875 C-3.9625 15.0175 -5.6125 15.3475 -7.3125 15.6875 C-7.3125 15.0275 -7.3125 14.3675 -7.3125 13.6875 C-8.3025 13.6875 -9.2925 13.6875 -10.3125 13.6875 C-9.9825 12.3675 -9.6525 11.0475 -9.3125 9.6875 C-9.3125 10.3475 -9.3125 11.0075 -9.3125 11.6875 C-8.3225 11.3575 -7.3325 11.0275 -6.3125 10.6875 C-6.3125 9.3675 -6.3125 8.0475 -6.3125 6.6875 C-6.3125 6.0275 -6.3125 5.3675 -6.3125 4.6875 C-7.6325 5.0175 -8.9525 5.3475 -10.3125 5.6875 C-9.6525 6.0175 -8.9925 6.3475 -8.3125 6.6875 C-8.3125 7.3475 -8.3125 8.0075 -8.3125 8.6875 C-9.6325 9.0175 -10.9525 9.3475 -12.3125 9.6875 C-12.6425 8.6975 -12.9725 7.7075 -13.3125 6.6875 C-13.3125 8.0075 -13.3125 9.3275 -13.3125 10.6875 C-14.9625 11.0175 -16.6125 11.3475 -18.3125 11.6875 C-17.9825 13.3375 -17.6525 14.9875 -17.3125 16.6875 C-18.6325 16.3575 -19.9525 16.0275 -21.3125 15.6875 C-21.67875971 11.17029689 -21.67875971 11.17029689 -19.9375 8.875 C-18.3125 7.6875 -18.3125 7.6875 -16.3125 7.6875 C-16.250625 6.924375 -16.18875 6.16125 -16.125 5.375 C-15.3125 2.6875 -15.3125 2.6875 -13.40625 1 C-8.87140278 -0.92387458 -4.8401986 -0.38653176 0 0 Z " fill="#5C5B5A" transform="translate(57.3125,30.3125)"/>
<path d="M0 0 C0.99 0.33 1.98 0.66 3 1 C3 1.99 3 2.98 3 4 C4.32 3.67 5.64 3.34 7 3 C7 3.66 7 4.32 7 5 C7.99 4.67 8.98 4.34 10 4 C9.01 3.01 8.02 2.02 7 1 C9 1 11 1 13 1 C13 1.66 13 2.32 13 3 C14.3921875 2.9071875 14.3921875 2.9071875 15.8125 2.8125 C19 3 19 3 20.875 4.5 C21.24625 4.995 21.6175 5.49 22 6 C20.741875 6.020625 19.48375 6.04125 18.1875 6.0625 C17.47980469 6.07410156 16.77210938 6.08570313 16.04296875 6.09765625 C14 6 14 6 11 5 C11 6.98 11 8.96 11 11 C5.58461538 13.21538462 5.58461538 13.21538462 2.625 12.125 C2.08875 11.75375 1.5525 11.3825 1 11 C0.34 13.31 -0.32 15.62 -1 18 C-1.78375 18.144375 -2.5675 18.28875 -3.375 18.4375 C-5.96421018 18.87798925 -5.96421018 18.87798925 -8 20 C-7.67 18.35 -7.34 16.7 -7 15 C-7.33 15.33 -7.66 15.66 -8 16 C-8.99 16 -9.98 16 -11 16 C-11 17.32 -11 18.64 -11 20 C-11.99 20 -12.98 20 -14 20 C-13.67 18.35 -13.34 16.7 -13 15 C-13.66 15 -14.32 15 -15 15 C-15 14.34 -15 13.68 -15 13 C-13.125 11.9375 -13.125 11.9375 -11 11 C-10.34 11.33 -9.68 11.66 -9 12 C-8.8453125 11.1028125 -8.8453125 11.1028125 -8.6875 10.1875 C-7.89113201 7.65360186 -6.96869862 6.74154109 -5 5 C-4.484375 4.443125 -3.96875 3.88625 -3.4375 3.3125 C-2 2 -2 2 0 2 C0 1.34 0 0.68 0 0 Z " fill="#5F5F5D" transform="translate(140,56)"/>
<path d="M0 0 C0.66 0 1.32 0 2 0 C2 1.32 2 2.64 2 4 C2.9075 3.79375 3.815 3.5875 4.75 3.375 C8.21546863 2.97513823 9.09470856 3.34524705 12 5 C11.8863485 7.62594784 11.75960946 10.25011547 11.625 12.875 C11.57859375 13.99455078 11.57859375 13.99455078 11.53125 15.13671875 C11.2265625 20.7734375 11.2265625 20.7734375 9 23 C4.44444444 22.44444444 4.44444444 22.44444444 3 21 C2.76518307 18.81707226 2.58636677 16.62796826 2.4375 14.4375 C2.35371094 13.23996094 2.26992187 12.04242188 2.18359375 10.80859375 C2.12300781 9.88175781 2.06242187 8.95492187 2 8 C1.01 8 0.02 8 -1 8 C-1 8.66 -1 9.32 -1 10 C-1.99 9.67 -2.98 9.34 -4 9 C-4 8.01 -4 7.02 -4 6 C-3.01 6 -2.02 6 -1 6 C-1.33 4.68 -1.66 3.36 -2 2 C-1.01 2.33 -0.02 2.66 1 3 C0.67 2.01 0.34 1.02 0 0 Z " fill="#EAE8E4" transform="translate(86,63)"/>
<path d="M0 0 C0.825 0.495 1.65 0.99 2.5 1.5 C2.17 2.49 1.84 3.48 1.5 4.5 C0.695625 4.62375 -0.10875 4.7475 -0.9375 4.875 C-1.783125 5.08125 -2.62875 5.2875 -3.5 5.5 C-3.83 6.16 -4.16 6.82 -4.5 7.5 C-5.16 6.18 -5.82 4.86 -6.5 3.5 C-7.11875 3.665 -7.7375 3.83 -8.375 4 C-10.5 4.5 -10.5 4.5 -12.5 4.5 C-12.5 5.16 -12.5 5.82 -12.5 6.5 C-11.84 6.83 -11.18 7.16 -10.5 7.5 C-10.83 8.16 -11.16 8.82 -11.5 9.5 C-13.15 9.5 -14.8 9.5 -16.5 9.5 C-15.84 8.51 -15.18 7.52 -14.5 6.5 C-14.5 5.51 -14.5 4.52 -14.5 3.5 C-15.16 3.5 -15.82 3.5 -16.5 3.5 C-16.17 4.49 -15.84 5.48 -15.5 6.5 C-17.48 6.83 -19.46 7.16 -21.5 7.5 C-21.17 9.15 -20.84 10.8 -20.5 12.5 C-24.375 9.875 -24.375 9.875 -25.5 6.5 C-26.16 6.17 -26.82 5.84 -27.5 5.5 C-28.125 2.9375 -28.125 2.9375 -28.5 0.5 C-29.49 0.17 -30.48 -0.16 -31.5 -0.5 C-26.12694301 -0.85233161 -26.12694301 -0.85233161 -23.5 -0.5 C-21.5 1.5 -21.5 1.5 -20.5 3.5 C-19.571875 2.860625 -18.64375 2.22125 -17.6875 1.5625 C-11.85845459 -2.20923527 -6.31388804 -2.70595202 0 0 Z " fill="#121211" transform="translate(208.5,51.5)"/>
<path d="M0 0 C0.74886475 0.00523682 1.49772949 0.01047363 2.26928711 0.01586914 C3.07817383 0.0190918 3.88706055 0.02231445 4.72045898 0.02563477 C5.5705957 0.03401367 6.42073242 0.04239258 7.29663086 0.05102539 C8.15063477 0.05553711 9.00463867 0.06004883 9.88452148 0.06469727 C12.00108749 0.07652166 14.11761771 0.0944577 16.23413086 0.11352539 C16.56413086 1.10352539 16.89413086 2.09352539 17.23413086 3.11352539 C15.58413086 3.44352539 13.93413086 3.77352539 12.23413086 4.11352539 C12.23413086 5.76352539 12.23413086 7.41352539 12.23413086 9.11352539 C10.25413086 10.10352539 10.25413086 10.10352539 8.23413086 11.11352539 C7.57413086 9.79352539 6.91413086 8.47352539 6.23413086 7.11352539 C5.57413086 7.11352539 4.91413086 7.11352539 4.23413086 7.11352539 C4.23413086 8.76352539 4.23413086 10.41352539 4.23413086 12.11352539 C3.57413086 12.11352539 2.91413086 12.11352539 2.23413086 12.11352539 C2.23413086 11.45352539 2.23413086 10.79352539 2.23413086 10.11352539 C1.57413086 10.11352539 0.91413086 10.11352539 0.23413086 10.11352539 C0.23413086 10.77352539 0.23413086 11.43352539 0.23413086 12.11352539 C-0.75586914 12.44352539 -1.74586914 12.77352539 -2.76586914 13.11352539 C-2.79273467 11.13443141 -2.8122029 9.15523568 -2.82836914 7.17602539 C-2.8399707 6.07387695 -2.85157227 4.97172852 -2.86352539 3.83618164 C-2.73222947 0.17565142 -2.73222947 0.17565142 0 0 Z " fill="#0D0D0D" transform="translate(125.765869140625,50.886474609375)"/>
<path d="M0 0 C0 0.66 0 1.32 0 2 C1.04800781 1.87431641 1.04800781 1.87431641 2.1171875 1.74609375 C3.02726562 1.64425781 3.93734375 1.54242188 4.875 1.4375 C5.77992187 1.33308594 6.68484375 1.22867188 7.6171875 1.12109375 C10 1 10 1 12 2 C12 2.99 12 3.98 12 5 C11.34 5 10.68 5 10 5 C10.56739868 9.12973628 10.56739868 9.12973628 12 13 C9.69 13.33 7.38 13.66 5 14 C4.67 13.01 4.34 12.02 4 11 C3.34 11 2.68 11 2 11 C2 11.66 2 12.32 2 13 C0.35 13.33 -1.3 13.66 -3 14 C-3 13.34 -3 12.68 -3 12 C-3.99 12 -4.98 12 -6 12 C-5.67 10.68 -5.34 9.36 -5 8 C-5 8.66 -5 9.32 -5 10 C-4.01 9.67 -3.02 9.34 -2 9 C-2 7.68 -2 6.36 -2 5 C-2 4.34 -2 3.68 -2 3 C-3.65 3 -5.3 3 -7 3 C-5.40442685 -0.19114631 -3.35905282 0 0 0 Z " fill="#9E9D9A" transform="translate(53,32)"/>
<path d="M0 0 C1.32 0 2.64 0 4 0 C4 0.66 4 1.32 4 2 C4.66 2 5.32 2 6 2 C6 2.99 6 3.98 6 5 C5.01 5.66 4.02 6.32 3 7 C3 7.66 3 8.32 3 9 C3.99 9 4.98 9 6 9 C6 8.34 6 7.68 6 7 C6.99 7 7.98 7 9 7 C9 8.98 9 10.96 9 13 C6.02588876 14.23921302 3.14737182 15.30058404 0 16 C0 15.34 0 14.68 0 14 C1.32 13.34 2.64 12.68 4 12 C2.68 10.68 1.36 9.36 0 8 C-3.01327566 9.50663783 -3.61056618 12.03166411 -5 15 C-5.66 15 -6.32 15 -7 15 C-7.33 13.02 -7.66 11.04 -8 9 C-9.32 9.33 -10.64 9.66 -12 10 C-11.67 8.02 -11.34 6.04 -11 4 C-10.34 5.32 -9.68 6.64 -9 8 C-8.34 8 -7.68 8 -7 8 C-6.34 6.68 -5.68 5.36 -5 4 C-3.35 4 -1.7 4 0 4 C0 2.68 0 1.36 0 0 Z " fill="#0A0A09" transform="translate(208,69)"/>
<path d="M0 0 C0 0.66 0 1.32 0 2 C-0.99 2.33 -1.98 2.66 -3 3 C-3.98275519 5.31491977 -3.98275519 5.31491977 -4.60546875 8.171875 C-4.86650391 9.22890625 -5.12753906 10.2859375 -5.39648438 11.375 C-5.78803711 13.045625 -5.78803711 13.045625 -6.1875 14.75 C-6.46013672 15.84828125 -6.73277344 16.9465625 -7.01367188 18.078125 C-8.16132097 22.81828966 -9.17247414 27.09927838 -9 32 C-6.60743751 32.70121643 -4.21209511 33.38614901 -1.8125 34.0625 C-1.13896484 34.26166016 -0.46542969 34.46082031 0.22851562 34.66601562 C4.13759972 35.75293169 7.12224653 36.38904602 11 35 C12.36020151 33.03241727 12.36020151 33.03241727 13 31 C14.35439668 33.70879335 14.06501451 36.00933268 14 39 C14.94875 38.95875 15.8975 38.9175 16.875 38.875 C20 39 20 39 22 41 C20.52031676 40.85950482 19.04125484 40.71245174 17.5625 40.5625 C16.73878906 40.48128906 15.91507812 40.40007812 15.06640625 40.31640625 C13 40 13 40 12 39 C8.51346593 38.3729527 5.02451018 37.80685319 1.52148438 37.28125 C-3.10916562 36.52620906 -6.96415353 35.54829497 -11 33 C-12.79836585 27.60490244 -10.47226 21.93288962 -9.25 16.5 C-8.98445312 15.25089844 -8.71890625 14.00179687 -8.4453125 12.71484375 C-8.17976562 11.51988281 -7.91421875 10.32492188 -7.640625 9.09375 C-7.39860352 7.99740234 -7.15658203 6.90105469 -6.90722656 5.77148438 C-5.54216688 1.60136663 -4.48568977 0 0 0 Z " fill="#5B5756" transform="translate(264,25)"/>
<path d="M0 0 C-0.226875 0.5775 -0.45375 1.155 -0.6875 1.75 C-1.26505193 4.12172477 -1.26505193 4.12172477 0.4375 6.25 C0.953125 6.8275 1.46875 7.405 2 8 C1.505 8.45375 1.01 8.9075 0.5 9.375 C-1.22609337 10.87635519 -1.22609337 10.87635519 -1 13 C-1.99 13.495 -1.99 13.495 -3 14 C-3 14.66 -3 15.32 -3 16 C-5.3125 16.25 -5.3125 16.25 -8 16 C-10.87184758 13.02558644 -11.71006138 9.86981585 -13 6 C-7.25 4.875 -7.25 4.875 -5 6 C-5 5.34 -5 4.68 -5 4 C-5.66 3.67 -6.32 3.34 -7 3 C-2.25 0 -2.25 0 0 0 Z " fill="#31302F" transform="translate(88,53)"/>
<path d="M0 0 C2.95925365 0.31991931 4.63324013 0.69239495 6.9375 2.625 C8.52304875 6.16916779 7.28879223 8.47277916 6 12 C5.21625 12.144375 4.4325 12.28875 3.625 12.4375 C1.03578982 12.87798925 1.03578982 12.87798925 -1 14 C-0.67 12.35 -0.34 10.7 0 9 C-0.33 9.33 -0.66 9.66 -1 10 C-1.99 10 -2.98 10 -4 10 C-4 11.32 -4 12.64 -4 14 C-4.99 14 -5.98 14 -7 14 C-6.67 12.35 -6.34 10.7 -6 9 C-6.66 9 -7.32 9 -8 9 C-8 8.34 -8 7.68 -8 7 C-6.125 5.9375 -6.125 5.9375 -4 5 C-3.34 5.33 -2.68 5.66 -2 6 C-1.855625 5.38125 -1.71125 4.7625 -1.5625 4.125 C-1 2 -1 2 0 0 Z " fill="#535251" transform="translate(133,62)"/>
<path d="M0 0 C0.33 0 0.66 0 1 0 C1 2.64 1 5.28 1 8 C1.66 7.34 2.32 6.68 3 6 C3 4.68 3 3.36 3 2 C3.66 2.33 4.32 2.66 5 3 C4.67 3.66 4.34 4.32 4 5 C4.66 5 5.32 5 6 5 C6 5.66 6 6.32 6 7 C6.66 7 7.32 7 8 7 C8 5.35 8 3.7 8 2 C8.66 2 9.32 2 10 2 C11.1875 3.625 11.1875 3.625 12 6 C10.625 9.25 10.625 9.25 9 12 C8.34 12 7.68 12 7 12 C7 11.01 7 10.02 7 9 C6.01 9.33 5.02 9.66 4 10 C4 10.66 4 11.32 4 12 C3.34 12 2.68 12 2 12 C1.67 21.9 1.34 31.8 1 42 C0.67 42 0.34 42 0 42 C0 28.14 0 14.28 0 0 Z " fill="#92918E" transform="translate(122,56)"/>
<path d="M0 0 C1.65 0.33 3.3 0.66 5 1 C4.41509121 7.14154225 3.45933748 13.00679849 2 19 C0.35 18.67 -1.3 18.34 -3 18 C-2.41509121 11.85845775 -1.45933748 5.99320151 0 0 Z " fill="#565251" transform="translate(267,35)"/>
<path d="M0 0 C0.66 0 1.32 0 2 0 C2.144375 0.763125 2.28875 1.52625 2.4375 2.3125 C2.9632594 5.08172908 2.9632594 5.08172908 4 8 C4.66 7.01 5.32 6.02 6 5 C6 11.6 6 18.2 6 25 C5.34 25 4.68 25 4 25 C4.33 25.99 4.66 26.98 5 28 C3.35 28.33 1.7 28.66 0 29 C0 28.34 0 27.68 0 27 C0.66 27 1.32 27 2 27 C2.08886184 23.80097361 1.91058531 21.07322544 1 18 C2.32 18 3.64 18 5 18 C5 17.34 5 16.68 5 16 C4.34 15.67 3.68 15.34 3 15 C3.66 15 4.32 15 5 15 C5 14.01 5 13.02 5 12 C4.01 12 3.02 12 2 12 C2 12.66 2 13.32 2 14 C1.01 14 0.02 14 -1 14 C-1.33 13.01 -1.66 12.02 -2 11 C-0.68 10.67 0.64 10.34 2 10 C2 9.01 2 8.02 2 7 C1.34 7 0.68 7 0 7 C0 4.69 0 2.38 0 0 Z " fill="#7B7A78" transform="translate(212,64)"/>
<path d="M0 0 C0 0.33 0 0.66 0 1 C-1.670625 1.12375 -1.670625 1.12375 -3.375 1.25 C-7.02222379 1.59489367 -7.02222379 1.59489367 -8.5 3.9375 C-9.24598544 6.04582216 -9.24598544 6.04582216 -8 8 C-8.99 8 -9.98 8 -11 8 C-11 7.34 -11 6.68 -11 6 C-11.99 6.33 -12.98 6.66 -14 7 C-13.34 7.66 -12.68 8.32 -12 9 C-13.65 9.33 -15.3 9.66 -17 10 C-17 9.34 -17 8.68 -17 8 C-18.32 8.33 -19.64 8.66 -21 9 C-21 8.01 -21 7.02 -21 6 C-22.65 6.33 -24.3 6.66 -26 7 C-26 6.01 -26 5.02 -26 4 C-24.02 3.34 -22.04 2.68 -20 2 C-20 2.99 -20 3.98 -20 5 C-19.31035156 4.6390625 -18.62070313 4.278125 -17.91015625 3.90625 C-11.54648429 0.76369595 -7.08752942 -0.58094503 0 0 Z " fill="#3A3938" transform="translate(164,51)"/>
<path d="M0 0 C0.33 0 0.66 0 1 0 C1.33 5.61 1.66 11.22 2 17 C-0.92824652 17.97608217 -2.95613276 18.08226668 -6 18 C-6.12375 17.195625 -6.2475 16.39125 -6.375 15.5625 C-6.684375 14.2940625 -6.684375 14.2940625 -7 13 C-7.66 12.67 -8.32 12.34 -9 12 C-8.67 11.01 -8.34 10.02 -8 9 C-5.69 9.33 -3.38 9.66 -1 10 C-1 8.68 -1 7.36 -1 6 C-1.66 6 -2.32 6 -3 6 C-3.33 4.68 -3.66 3.36 -4 2 C-2.68 2.33 -1.36 2.66 0 3 C0 2.01 0 1.02 0 0 Z " fill="#080807" transform="translate(88,68)"/>
<path d="M0 0 C1.65 0 3.3 0 5 0 C5 1.32 5 2.64 5 4 C7.64 4.33 10.28 4.66 13 5 C13.34414421 11.99759901 12.71498778 18.46391831 10 25 C6.54754176 27.30163882 5.05261287 27.34490322 1 27 C0.34 26.34 -0.32 25.68 -1 25 C0.11375 25.020625 1.2275 25.04125 2.375 25.0625 C5.83215921 25.26380718 5.83215921 25.26380718 8 24 C9.81834969 18.76943854 10.23360546 13.48972839 10 8 C6.37 6.68 2.74 5.36 -1 4 C-0.67 2.68 -0.34 1.36 0 0 Z " fill="#3F3A39" transform="translate(291,42)"/>
<path d="M0 0 C2.49361571 1.20381448 4.68143083 2.45428722 7 4 C7.33 4.99 7.66 5.98 8 7 C10.00016466 8.20882096 10.00016466 8.20882096 12 9 C12 10.32 12 11.64 12 13 C9.03 13 6.06 13 3 13 C3.33 12.01 3.66 11.02 4 10 C4.66 10 5.32 10 6 10 C6 9.34 6 8.68 6 8 C4.02 8.33 2.04 8.66 0 9 C-1.4606285 6.35261084 -2 5.10551666 -2 2 C-1.34 2 -0.68 2 0 2 C0 1.34 0 0.68 0 0 Z " fill="#222221" transform="translate(75,65)"/>
<path d="M0 0 C5.37305699 -0.35233161 5.37305699 -0.35233161 8 0 C10 2 10 2 11 4 C12.32 3.01 13.64 2.02 15 1 C15.66 1.33 16.32 1.66 17 2 C16.67 3.65 16.34 5.3 16 7 C14.02 7.33 12.04 7.66 10 8 C10.33 9.65 10.66 11.3 11 13 C7.125 10.375 7.125 10.375 6 7 C5.34 6.67 4.68 6.34 4 6 C3.375 3.4375 3.375 3.4375 3 1 C2.01 0.67 1.02 0.34 0 0 Z " fill="#0B0B0B" transform="translate(177,51)"/>
<path d="M0 0 C0 0.66 0 1.32 0 2 C1.04800781 1.87431641 1.04800781 1.87431641 2.1171875 1.74609375 C3.02726562 1.64425781 3.93734375 1.54242188 4.875 1.4375 C5.77992187 1.33308594 6.68484375 1.22867188 7.6171875 1.12109375 C10 1 10 1 12 2 C12 2.99 12 3.98 12 5 C11.34 5 10.68 5 10 5 C10.56739868 9.12973628 10.56739868 9.12973628 12 13 C10.35 13 8.7 13 7 13 C7 10.69 7 8.38 7 6 C5.35 6 3.7 6 2 6 C2 5.01 2 4.02 2 3 C1.67 3.66 1.34 4.32 1 5 C0.01 5 -0.98 5 -2 5 C-2 4.34 -2 3.68 -2 3 C-3.65 3 -5.3 3 -7 3 C-5.40442685 -0.19114631 -3.35905282 0 0 0 Z " fill="#E9E7E3" transform="translate(53,32)"/>
<path d="M0 0 C0.66 0.33 1.32 0.66 2 1 C2 15.85 2 30.7 2 46 C1.67 46 1.34 46 1 46 C0.97494385 45.16339844 0.9498877 44.32679687 0.92407227 43.46484375 C0.82827164 40.32623274 0.72908345 37.18775119 0.62768555 34.04931641 C0.56367259 32.03686399 0.5034803 30.0242912 0.44335938 28.01171875 C0.20313119 20.04662456 0.20313119 20.04662456 -0.59765625 12.125 C-0.73042969 11.09375 -0.86320313 10.0625 -1 9 C-0.67 8.67 -0.34 8.34 0 8 C0.04063832 6.33382885 0.042721 4.66611905 0 3 C-1.32 3.33 -2.64 3.66 -4 4 C-2.68 2.68 -1.36 1.36 0 0 Z " fill="#8A8986" transform="translate(165,52)"/>
<path d="M0 0 C1.2065625 0.0309375 1.2065625 0.0309375 2.4375 0.0625 C2.1075 1.7125 1.7775 3.3625 1.4375 5.0625 C3.4175 4.7325 5.3975 4.4025 7.4375 4.0625 C7.7675 5.0525 8.0975 6.0425 8.4375 7.0625 C7.468125 7.35125 6.49875 7.64 5.5 7.9375 C2.33085797 8.70464682 2.33085797 8.70464682 1.4375 11.0625 C0.7775 11.0625 0.1175 11.0625 -0.5625 11.0625 C-1.2225 10.4025 -1.8825 9.7425 -2.5625 9.0625 C-2.8925 9.0625 -3.2225 9.0625 -3.5625 9.0625 C-3.66015625 2.91015625 -3.66015625 2.91015625 -3.5625 1.0625 C-2.5625 0.0625 -2.5625 0.0625 0 0 Z " fill="#51514F" transform="translate(199.5625,65.9375)"/>
<path d="M0 0 C-0.185625 0.556875 -0.37125 1.11375 -0.5625 1.6875 C-1.07551165 4.399133 -0.6640724 6.34371039 0 9 C-0.99 8.67 -1.98 8.34 -3 8 C-3 8.66 -3 9.32 -3 10 C-6.3 9.67 -9.6 9.34 -13 9 C-13 8.01 -13 7.02 -13 6 C-7.25 4.875 -7.25 4.875 -5 6 C-5 5.34 -5 4.68 -5 4 C-5.66 3.67 -6.32 3.34 -7 3 C-2.25 0 -2.25 0 0 0 Z " fill="#737271" transform="translate(88,53)"/>
<path d="M0 0 C-0.33 1.65 -0.66 3.3 -1 5 C-0.34 5 0.32 5 1 5 C1 5.66 1 6.32 1 7 C-4.75 8.125 -4.75 8.125 -7 7 C-7.33 7.99 -7.66 8.98 -8 10 C-8.99 8.35 -9.98 6.7 -11 5 C-9.92570402 4.15504811 -8.84010798 3.32445142 -7.75 2.5 C-7.14671875 2.0359375 -6.5434375 1.571875 -5.921875 1.09375 C-4 0 -4 0 0 0 Z " fill="#1A1A1A" transform="translate(82,52)"/>
<path d="M0 0 C1.67542976 0.28604898 3.34385343 0.61781233 5 1 C5 1.66 5 2.32 5 3 C5.928125 2.938125 6.85625 2.87625 7.8125 2.8125 C11 3 11 3 12.875 4.5 C13.24625 4.995 13.6175 5.49 14 6 C12.741875 6.020625 11.48375 6.04125 10.1875 6.0625 C9.47980469 6.07410156 8.77210938 6.08570313 8.04296875 6.09765625 C6 6 6 6 3 5 C3 6.98 3 8.96 3 11 C2.01 10.67 1.02 10.34 0 10 C0 9.34 0 8.68 0 8 C-0.66 7.67 -1.32 7.34 -2 7 C-0.68 6.01 0.64 5.02 2 4 C1.01 3.01 0.02 2.02 -1 1 C-0.67 0.67 -0.34 0.34 0 0 Z " fill="#9B9A97" transform="translate(148,56)"/>
<path d="M0 0 C0.33 0.66 0.66 1.32 1 2 C1.33 1.34 1.66 0.68 2 0 C2.99 0.33 3.98 0.66 5 1 C5 1.99 5 2.98 5 4 C7.31 3.01 9.62 2.02 12 1 C12 1.66 12 2.32 12 3 C10.68 3.33 9.36 3.66 8 4 C7.67 5.32 7.34 6.64 7 8 C5.68 7.34 4.36 6.68 3 6 C3 5.34 3 4.68 3 4 C2.01 4 1.02 4 0 4 C0 4.99 0 5.98 0 7 C-0.66 7 -1.32 7 -2 7 C-2.33 5.35 -2.66 3.7 -3 2 C-2.01 1.34 -1.02 0.68 0 0 Z " fill="#747371" transform="translate(199,54)"/>
<path d="M0 0 C0.66 0 1.32 0 2 0 C2.34684009 5.28931132 2.34684009 5.28931132 2 8 C0.1875 10.0625 0.1875 10.0625 -2 11 C-2.99 10.67 -3.98 10.34 -5 10 C-5.3125 7.6875 -5.3125 7.6875 -5 5 C-2.5 3.3125 -2.5 3.3125 0 2 C0 1.34 0 0.68 0 0 Z " fill="#151515" transform="translate(216,89)"/>
<path d="M0 0 C3 0.1875 3 0.1875 6 1 C6.66 1.99 7.32 2.98 8 4 C10.05003955 5.19232613 10.05003955 5.19232613 12 6 C11.67 6.66 11.34 7.32 11 8 C9.39253944 7.57476184 7.78910164 7.13429874 6.1875 6.6875 C5.29417969 6.44386719 4.40085937 6.20023437 3.48046875 5.94921875 C0.94752262 4.9799181 -0.2716496 4.04990396 -2 2 C-1.34 1.34 -0.68 0.68 0 0 Z " fill="#252524" transform="translate(73,92)"/>
<path d="M0 0 C1.125 1.875 1.125 1.875 0.8125 4.5625 C0.585625 5.325625 0.35875 6.08875 0.125 6.875 C-0.535 6.875 -1.195 6.875 -1.875 6.875 C-2.205 7.865 -2.535 8.855 -2.875 9.875 C-2.875 8.885 -2.875 7.895 -2.875 6.875 C-3.865 7.205 -4.855 7.535 -5.875 7.875 C-5.545 6.555 -5.215 5.235 -4.875 3.875 C-6.525 3.545 -8.175 3.215 -9.875 2.875 C-9.215 2.545 -8.555 2.215 -7.875 1.875 C-7.545 1.215 -7.215 0.555 -6.875 -0.125 C-2.62918994 -1.57751397 -2.62918994 -1.57751397 0 0 Z " fill="#575654" transform="translate(213.875,84.125)"/>
<path d="M0 0 C0.33 0.99 0.66 1.98 1 3 C2.98 2.34 4.96 1.68 7 1 C6.40138258 3.35171131 5.73075648 5.6859378 5 8 C4.01 8.495 4.01 8.495 3 9 C3 9.66 3 10.32 3 11 C2.01 11.33 1.02 11.66 0 12 C0 8.04 0 4.08 0 0 Z " fill="#313130" transform="translate(123,52)"/>
<path d="M0 0 C0.66 0 1.32 0 2 0 C2 1.32 2 2.64 2 4 C2.66 4 3.32 4 4 4 C4 7.63 4 11.26 4 15 C3.67 15 3.34 15 3 15 C2.67 12.69 2.34 10.38 2 8 C1.01 8 0.02 8 -1 8 C-1 8.66 -1 9.32 -1 10 C-1.99 9.67 -2.98 9.34 -4 9 C-4 8.01 -4 7.02 -4 6 C-3.01 6 -2.02 6 -1 6 C-1.33 4.68 -1.66 3.36 -2 2 C-1.01 2.33 -0.02 2.66 1 3 C0.67 2.01 0.34 1.02 0 0 Z " fill="#C5C4C0" transform="translate(86,63)"/>
<path d="M0 0 C0.33 0 0.66 0 1 0 C0.67 3.63 0.34 7.26 0 11 C-1.65 11 -3.3 11 -5 11 C-4.34 10.01 -3.68 9.02 -3 8 C-3.61674772 6.31422289 -4.28272222 4.64551962 -5 3 C-4.67 2.34 -4.34 1.68 -4 1 C-3.01 1.33 -2.02 1.66 -1 2 C-0.67 1.34 -0.34 0.68 0 0 Z " fill="#838280" transform="translate(67,36)"/>
<path d="M0 0 C0.66 0.66 1.32 1.32 2 2 C2.99 2 3.98 2 5 2 C5 2.66 5 3.32 5 4 C4.01 4.495 4.01 4.495 3 5 C3.66 5.33 4.32 5.66 5 6 C3.02 6.99 3.02 6.99 1 8 C1 8.99 1 9.98 1 11 C-1.475 10.01 -1.475 10.01 -4 9 C-3.34 7.35 -2.68 5.7 -2 4 C-1.34 4 -0.68 4 0 4 C0 2.68 0 1.36 0 0 Z " fill="#272626" transform="translate(144,66)"/>
<path d="M0 0 C0.625 1.875 0.625 1.875 1 4 C0.34 4.66 -0.32 5.32 -1 6 C0.32 6.66 1.64 7.32 3 8 C2.01 8 1.02 8 0 8 C0 8.66 0 9.32 0 10 C-1.32 10 -2.64 10 -4 10 C-4 9.34 -4 8.68 -4 8 C-4.99 7.67 -5.98 7.34 -7 7 C-7 6.34 -7 5.68 -7 5 C-5.35 4.34 -3.7 3.68 -2 3 C-2 2.34 -2 1.68 -2 1 C-1.34 0.67 -0.68 0.34 0 0 Z " fill="#6C6B69" transform="translate(194,54)"/>
<path d="M0 0 C4.75 1.875 4.75 1.875 7 3 C7 4.32 7 5.64 7 7 C4.03 7 1.06 7 -2 7 C-1.67 6.01 -1.34 5.02 -1 4 C-0.34 4 0.32 4 1 4 C0.67 2.68 0.34 1.36 0 0 Z " fill="#61605F" transform="translate(80,71)"/>
<path d="M0 0 C2.97 0.495 2.97 0.495 6 1 C5.835 1.5775 5.67 2.155 5.5 2.75 C4.85537969 5.26664369 4.85537969 5.26664369 5 9 C4.34 9 3.68 9 3 9 C3 8.34 3 7.68 3 7 C1.68 6.67 0.36 6.34 -1 6 C-0.67 4.02 -0.34 2.04 0 0 Z " fill="#474645" transform="translate(151,61)"/>
<path d="M0 0 C5.37305699 -0.44041451 5.37305699 -0.44041451 8 0 C10 2.5 10 2.5 11 5 C8 7 8 7 5.8125 6.625 C5.214375 6.41875 4.61625 6.2125 4 6 C3.67 4.35 3.34 2.7 3 1 C2.01 0.67 1.02 0.34 0 0 Z " fill="#2C2C2B" transform="translate(177,51)"/>
<path d="M0 0 C2.97 0 5.94 0 9 0 C6.19195732 2.96404505 3.81684226 5.44499019 0 7 C-0.66 6.01 -1.32 5.02 -2 4 C-1.34 2.68 -0.68 1.36 0 0 Z " fill="#1E1E1E" transform="translate(156,52)"/>
<path d="M0 0 C0.99 0.495 0.99 0.495 2 1 C1.67 1.66 1.34 2.32 1 3 C1.66 3 2.32 3 3 3 C3 3.66 3 4.32 3 5 C3.66 5 4.32 5 5 5 C5 3.35 5 1.7 5 0 C5.66 0 6.32 0 7 0 C8.1875 1.625 8.1875 1.625 9 4 C7.625 7.25 7.625 7.25 6 10 C5.34 10 4.68 10 4 10 C4 8.68 4 7.36 4 6 C2.68 5.34 1.36 4.68 0 4 C0 2.68 0 1.36 0 0 Z " fill="#C2C1BE" transform="translate(125,58)"/>
<path d="M0 0 C0.99 0.99 1.98 1.98 3 3 C2.67 3.99 2.34 4.98 2 6 C1.67 5.01 1.34 4.02 1 3 C0.34 3 -0.32 3 -1 3 C-0.649375 3.7425 -0.29875 4.485 0.0625 5.25 C1.04509293 8.1322726 1.0326802 9.21176345 0 12 C-0.66 12 -1.32 12 -2 12 C-1.938125 11.236875 -1.87625 10.47375 -1.8125 9.6875 C-2.03333514 6.52219632 -2.69698534 6.01513783 -5 4 C-5 3.34 -5 2.68 -5 2 C-3.35 1.34 -1.7 0.68 0 0 Z " fill="#BEBDBA" transform="translate(74,64)"/>
<path d="M0 0 C0.66 0 1.32 0 2 0 C2 0.99 2 1.98 2 3 C2.66 3 3.32 3 4 3 C3.67 4.32 3.34 5.64 3 7 C2.195625 7.12375 1.39125 7.2475 0.5625 7.375 C-0.7059375 7.684375 -0.7059375 7.684375 -2 8 C-2.33 8.66 -2.66 9.32 -3 10 C-3.99 9.67 -4.98 9.34 -6 9 C-5.67 7.68 -5.34 6.36 -5 5 C-5 5.66 -5 6.32 -5 7 C-4.01 6.67 -3.02 6.34 -2 6 C-0.77479736 2.99152582 -0.77479736 2.99152582 0 0 Z " fill="#5C5B59" transform="translate(53,35)"/>
<path d="M0 0 C0.99 0 1.98 0 3 0 C2 5 1 10 0 15 C-0.66 15 -1.32 15 -2 15 C-1.03644647 4.44191344 -1.03644647 4.44191344 0 0 Z " fill="#D8D5D2" transform="translate(268,37)"/>
<path d="M0 0 C2 3 2 3 3 6 C1.35 6.33 -0.3 6.66 -2 7 C-1.67 8.65 -1.34 10.3 -1 12 C-2.32 11.67 -3.64 11.34 -5 11 C-5.36625971 6.48279689 -5.36625971 6.48279689 -3.625 4.1875 C-2 3 -2 3 0 3 C0 2.01 0 1.02 0 0 Z " fill="#92908E" transform="translate(41,35)"/>
<path d="M0 0 C4.29 0 8.58 0 13 0 C13 2.64 13 5.28 13 8 C12.34 7.67 11.68 7.34 11 7 C11 5.68 11 4.36 11 3 C10.34 3 9.68 3 9 3 C9 2.34 9 1.68 9 1 C4.545 1.495 4.545 1.495 0 2 C0 1.34 0 0.68 0 0 Z " fill="#1A1A19" transform="translate(54,31)"/>
<path d="M0 0 C1.65 0 3.3 0 5 0 C5 0.66 5 1.32 5 2 C5.66 2.33 6.32 2.66 7 3 C6.67 4.32 6.34 5.64 6 7 C5.236875 6.979375 4.47375 6.95875 3.6875 6.9375 C0.89814214 6.87057159 0.89814214 6.87057159 -2 8 C-1.34 6.68 -0.68 5.36 0 4 C0.99 4 1.98 4 3 4 C3 3.34 3 2.68 3 2 C2.01 1.67 1.02 1.34 0 1 C0 0.67 0 0.34 0 0 Z " fill="#121212" transform="translate(46,35)"/>
<path d="M0 0 C0.66 0 1.32 0 2 0 C2.144375 0.78375 2.28875 1.5675 2.4375 2.375 C2.87798925 4.96421018 2.87798925 4.96421018 4 7 C3.39239518 9.3494053 2.72870472 11.68529088 2 14 C1.01 14 0.02 14 -1 14 C-1.33 13.01 -1.66 12.02 -2 11 C-0.68 10.67 0.64 10.34 2 10 C2 9.01 2 8.02 2 7 C1.34 7 0.68 7 0 7 C0 4.69 0 2.38 0 0 Z " fill="#B0AFAC" transform="translate(212,64)"/>
<path d="M0 0 C2 3 2 3 2 5 C2.66 5.33 3.32 5.66 4 6 C3.505 6.61875 3.01 7.2375 2.5 7.875 C0.80777227 9.83880904 0.80777227 9.83880904 1 12 C1.66 12 2.32 12 3 12 C2.67 12.99 2.34 13.98 2 15 C1.67 14.34 1.34 13.68 1 13 C0.34 13 -0.32 13 -1 13 C-1.07654536 8.48382401 -1.10228696 4.40914783 0 0 Z " fill="#3E3E3C" transform="translate(67,63)"/>
<path d="M0 0 C0.99 0.33 1.98 0.66 3 1 C3.6875 3.0625 3.6875 3.0625 4 5 C3.01 5 2.02 5 1 5 C1 6.32 1 7.64 1 9 C0.01 9 -0.98 9 -2 9 C-1.67 7.35 -1.34 5.7 -1 4 C-1.66 4 -2.32 4 -3 4 C-3 3.34 -3 2.68 -3 2 C-2.01 1.34 -1.02 0.68 0 0 Z " fill="#444442" transform="translate(128,67)"/>
<path d="M0 0 C0.33 0 0.66 0 1 0 C1 5.28 1 10.56 1 16 C0.67 16 0.34 16 0 16 C-0.33 12.7 -0.66 9.4 -1 6 C-1.66 6 -2.32 6 -3 6 C-3.33 4.68 -3.66 3.36 -4 2 C-2.68 2.33 -1.36 2.66 0 3 C0 2.01 0 1.02 0 0 Z " fill="#2F2E2D" transform="translate(88,68)"/>
<path d="M0 0 C0.66 0 1.32 0 2 0 C2.33 0.66 2.66 1.32 3 2 C4.65 2 6.3 2 8 2 C7.67 2.66 7.34 3.32 7 4 C4.56640625 4.44921875 4.56640625 4.44921875 1.5625 4.6875 C0.57378906 4.77386719 -0.41492187 4.86023437 -1.43359375 4.94921875 C-4 5 -4 5 -6 4 C-5.67 3.34 -5.34 2.68 -5 2 C-3.35 2 -1.7 2 0 2 C0 1.34 0 0.68 0 0 Z " fill="#3E3D3C" transform="translate(55,43)"/>
<path d="M0 0 C1.21236328 0.01353516 1.21236328 0.01353516 2.44921875 0.02734375 C3.37154297 0.04474609 3.37154297 0.04474609 4.3125 0.0625 C4.3125 0.3925 4.3125 0.7225 4.3125 1.0625 C2.641875 1.18625 2.641875 1.18625 0.9375 1.3125 C-2.70972379 1.65739367 -2.70972379 1.65739367 -4.1875 4 C-4.93348544 6.10832216 -4.93348544 6.10832216 -3.6875 8.0625 C-4.6775 8.0625 -5.6675 8.0625 -6.6875 8.0625 C-7.0175 5.7525 -7.3475 3.4425 -7.6875 1.0625 C-4.80538698 0.10179566 -2.98899956 -0.04331883 0 0 Z " fill="#3B3B3A" transform="translate(159.6875,50.9375)"/>
<path d="M0 0 C0.99 0.33 1.98 0.66 3 1 C2.67 1.99 2.34 2.98 2 4 C1.01 4 0.02 4 -1 4 C-0.67 5.32 -0.34 6.64 0 8 C-1.65 8 -3.3 8 -5 8 C-5 5 -5 5 -3.625 3.3125 C-2 2 -2 2 0 2 C0 1.34 0 0.68 0 0 Z " fill="#D0CECB" transform="translate(140,56)"/>
<path d="M0 0 C0.33 0 0.66 0 1 0 C1.33 5.28 1.66 10.56 2 16 C1.01 16.33 0.02 16.66 -1 17 C-0.67 11.39 -0.34 5.78 0 0 Z " fill="#D1CFCC" transform="translate(120,72)"/>
<path d="M0 0 C0 0.99 0 1.98 0 3 C-0.66 3 -1.32 3 -2 3 C-2.33 3.99 -2.66 4.98 -3 6 C-3.33 5.01 -3.66 4.02 -4 3 C-4.99 3 -5.98 3 -7 3 C-6.67 2.01 -6.34 1.02 -6 0 C-3 -1 -3 -1 0 0 Z " fill="#DEDDD9" transform="translate(65,34)"/>
<path d="M0 0 C0 0.66 0 1.32 0 2 C0.66 2 1.32 2 2 2 C2 2.66 2 3.32 2 4 C-1.3 3.67 -4.6 3.34 -8 3 C-8 2.01 -8 1.02 -8 0 C-4.71303767 -0.79953138 -3.28976808 -1.09658936 0 0 Z " fill="#B8B7B4" transform="translate(83,59)"/>
<path d="M0 0 C0.99 0.33 1.98 0.66 3 1 C2.33333333 3 1.66666667 5 1 7 C0.34 7 -0.32 7 -1 7 C-1 7.66 -1 8.32 -1 9 C-1.66 9 -2.32 9 -3 9 C-2.44271087 5.65626525 -1.64826111 2.96687001 0 0 Z " fill="#8A8987" transform="translate(206,76)"/>
<path d="M0 0 C1.04005702 3.38018531 1.08004482 6.4780279 1 10 C-0.32 10.33 -1.64 10.66 -3 11 C-2.69078116 9.54096742 -2.37751201 8.08279278 -2.0625 6.625 C-1.88847656 5.81289063 -1.71445312 5.00078125 -1.53515625 4.1640625 C-1 2 -1 2 0 0 Z " fill="#585453" transform="translate(281,40)"/>
<path d="M0 0 C0 1.65 0 3.3 0 5 C-2.375 5.625 -2.375 5.625 -5 6 C-5.66 5.34 -6.32 4.68 -7 4 C-2.25 0 -2.25 0 0 0 Z " fill="#111111" transform="translate(41,35)"/>
<path d="M0 0 C0 0.66 0 1.32 0 2 C0.99 2 1.98 2 3 2 C2.67 2.99 2.34 3.98 2 5 C1.67 4.67 1.34 4.34 1 4 C0.01 4.33 -0.98 4.66 -2 5 C-2 4.34 -2 3.68 -2 3 C-3.65 3 -5.3 3 -7 3 C-5.40442685 -0.19114631 -3.35905282 0 0 0 Z " fill="#E3E1DD" transform="translate(53,32)"/>
<path d="M0 0 C0.99 0 1.98 0 3 0 C3.33 1.98 3.66 3.96 4 6 C3.34 6 2.68 6 2 6 C1.67 5.34 1.34 4.68 1 4 C0.34 4.66 -0.32 5.32 -1 6 C-1.042721 4.33388095 -1.04063832 2.66617115 -1 1 C-0.67 0.67 -0.34 0.34 0 0 Z " fill="#383837" transform="translate(197,78)"/>
<path d="M0 0 C1.65 0 3.3 0 5 0 C5 2.83967231 4.59732819 5.23735711 4 8 C3.34 8 2.68 8 2 8 C2.33 6.02 2.66 4.04 3 2 C2.01 2 1.02 2 0 2 C0 1.34 0 0.68 0 0 Z " fill="#61605E" transform="translate(83,85)"/>
<path d="M0 0 C1.98 0.495 1.98 0.495 4 1 C3.34 1 2.68 1 2 1 C2.99 2.65 3.98 4.3 5 6 C2.03 5.505 2.03 5.505 -1 5 C-0.67 3.35 -0.34 1.7 0 0 Z " fill="#767573" transform="translate(182,70)"/>
<path d="M0 0 C0 0.66 0 1.32 0 2 C-0.99 2 -1.98 2 -3 2 C-3 2.66 -3 3.32 -3 4 C-3.66 4 -4.32 4 -5 4 C-5 4.66 -5 5.32 -5 6 C-5.66 6 -6.32 6 -7 6 C-7 4.68 -7 3.36 -7 2 C-4 0 -4 0 0 0 Z " fill="#555453" transform="translate(82,52)"/>
<path d="M0 0 C1.65 0 3.3 0 5 0 C4.6875 1.9375 4.6875 1.9375 4 4 C3.01 4.33 2.02 4.66 1 5 C0.34 4.67 -0.32 4.34 -1 4 C-0.67 2.68 -0.34 1.36 0 0 Z " fill="#767270" transform="translate(291,42)"/>
<path d="M0 0 C0.33 0.66 0.66 1.32 1 2 C1.99 2.33 2.98 2.66 4 3 C1 5 1 5 -1.1875 4.625 C-1.785625 4.41875 -2.38375 4.2125 -3 4 C-2.67 3.01 -2.34 2.02 -2 1 C-1.34 0.67 -0.68 0.34 0 0 Z " fill="#3C3C3B" transform="translate(209,78)"/>
<path d="M0 0 C1.625 2.5 1.625 2.5 3 5 C1.68 5.33 0.36 5.66 -1 6 C-1 5.01 -1 4.02 -1 3 C-1.99 3 -2.98 3 -4 3 C-4 2.34 -4 1.68 -4 1 C-2 0 -2 0 0 0 Z " fill="#686766" transform="translate(184,59)"/>
<path d="M0 0 C0.99 1.32 1.98 2.64 3 4 C2.01 4 1.02 4 0 4 C0 4.99 0 5.98 0 7 C-0.66 7 -1.32 7 -2 7 C-2.33 5.35 -2.66 3.7 -3 2 C-2.01 1.34 -1.02 0.68 0 0 Z " fill="#BFBEBB" transform="translate(199,54)"/>
<path d="M0 0 C0 0.66 0 1.32 0 2 C-1.98 2.33 -3.96 2.66 -6 3 C-6 2.01 -6 1.02 -6 0 C-3.50907189 -1.24546405 -2.58919267 -0.7767578 0 0 Z " fill="#1C1C1C" transform="translate(143,52)"/>
<path d="M0 0 C0.99 0.33 1.98 0.66 3 1 C2.34 2.32 1.68 3.64 1 5 C-0.32 4.67 -1.64 4.34 -3 4 C-2.67 3.01 -2.34 2.02 -2 1 C-1.34 0.67 -0.68 0.34 0 0 Z " fill="#4E4E4C" transform="translate(173,96)"/>
<path d="M0 0 C0.99 0.33 1.98 0.66 3 1 C3.33 1.99 3.66 2.98 4 4 C3.67 4.66 3.34 5.32 3 6 C-0.875 4.25 -0.875 4.25 -2 2 C-1.34 2 -0.68 2 0 2 C0 1.34 0 0.68 0 0 Z " fill="#C4C2BF" transform="translate(79,63)"/>
<path d="M0 0 C0.66 0 1.32 0 2 0 C2 0.99 2 1.98 2 3 C2.66 3 3.32 3 4 3 C4 3.66 4 4.32 4 5 C2.02 5.33 0.04 5.66 -2 6 C-1.34 4.02 -0.68 2.04 0 0 Z " fill="#747371" transform="translate(53,35)"/>
<path d="M0 0 C0.66 0 1.32 0 2 0 C2 1.98 2 3.96 2 6 C0.35 6.33 -1.3 6.66 -3 7 C-3 6.34 -3 5.68 -3 5 C-2.34 5 -1.68 5 -1 5 C-0.67 3.35 -0.34 1.7 0 0 Z " fill="#B3B2AF" transform="translate(215,86)"/>
<path d="M0 0 C0.99 0.33 1.98 0.66 3 1 C3 2.65 3 4.3 3 6 C2.01 5.67 1.02 5.34 0 5 C0 4.34 0 3.68 0 3 C-0.66 2.67 -1.32 2.34 -2 2 C-1.34 1.34 -0.68 0.68 0 0 Z " fill="#DBD9D6" transform="translate(148,61)"/>
<path d="M0 0 C-0.33 0.99 -0.66 1.98 -1 3 C-2.32 3 -3.64 3 -5 3 C-5.66 3.66 -6.32 4.32 -7 5 C-7.33 3.68 -7.66 2.36 -8 1 C-5.07175348 0.02391783 -3.04386724 -0.08226668 0 0 Z " fill="#7B7A78" transform="translate(147,59)"/>
<path d="M0 0 C0.99 0.33 1.98 0.66 3 1 C3 1.99 3 2.98 3 4 C2.01 4.33 1.02 4.66 0 5 C-0.66 3.68 -1.32 2.36 -2 1 C-1.34 0.67 -0.68 0.34 0 0 Z " fill="#080808" transform="translate(150,53)"/>
</svg>
